<?xml version="1.0" encoding="UTF-8" standalone="no"?> <!-- Created with Vectornator for iOS (http://vectornator.io/) --><!DOCTYPE svg PUBLIC "-//W3C//DTD SVG 1.1//EN" "http://www.w3.org/Graphics/SVG/1.1/DTD/svg11.dtd">
<svg height="100%" style="fill-rule:evenodd;clip-rule:evenodd;stroke-linecap:round;stroke-linejoin:round;" xmlnsXlink="http://www.w3.org/1999/xlink" xmlns="http://www.w3.org/2000/svg" xmlSpace="preserve" width="100%" xmlnsVectornator="http://vectornator.io" version="1.1" viewBox="0 0 3370.82 2384.24">
<metadata>
<vectornatorSetting key="DisplayWhiteBackground" value="0"/>
<vectornatorSetting key="RulersVisible" value="1"/>
<vectornatorSetting key="Units" value="Millimeters"/>
<vectornatorSetting key="New" value="1"/>
<vectornatorSetting key="DynamicGuides" value="0"/>
<vectornatorSetting key="GuidesVisible" value="1"/>
<vectornatorSetting key="SnapToPoints" value="0"/>
<vectornatorSetting key="SnapToGrid" value="0"/>
<vectornatorSetting key="SnapToGuides" value="1"/>
<vectornatorSetting key="DimensionsVisible" value="1"/>
<vectornatorSetting key="SnapToEdges" value="0"/>
</metadata>
<defs/>
<g id="Layer 1" vectornatorLayerName="Layer 1">
<path d="M0.625+1348.31L0.625+2390.09L3393.59+2390.09L3393.59+1348.31C3393.59+1348.31+3299.25+1350.94+3015.12+1366.53C2903.46+1372.66+2754.59+1354.02+2643.49+1355.01C2606.04+1355.34+2572.87+1357.91+2546.88+1364.41C2426.36+1394.53+2136.87+1406.52+1962.62+1409.5C1854.58+1411.35+1662.57+1380.48+1563.81+1376.91C1279.33+1366.62+1074.33+1383.42+1044.25+1397.66C938.009+1447.93+378.01+1402.33+338.594+1392.59C205.739+1359.77+0.625+1348.31+0.625+1348.31Z" fill-opacity="0.949153" fill="#c0945e" opacity="1"/>
</g>
<g id="Layer 2" vectornatorLayerName="Layer 2">
<path d="M553.686+780.251L502.298+814.51L530.428+887.044L591.16+970.349L570.856+844.913L611.597+981.394L664.685+1041.99L682.5+858.611L590.001+796.945L520.74+714.05L557.112+640.038L545.314+715.922L604.389+788.037L690.037+834.63L687.981+703.075L612.654+651.181L687.28+674.453L700.315+600.983L648.926+596.872L703.328+574.996L713.333+696.908L728.407+622.909L770.203+614.687L746.452+638.033L714.703+818.87L820.221+727.056L862.017+660.594L831.184+622.224L875.253+657.431L831.467+742.051L784.638+772.797L766.686+803.569L865.721+722.554L929.85+687.752L893.61+728.412L930.013+759L882.762+736.917L854.473+753.477L808.869+785.49L777.055+823.667L716.614+873.575L705.111+994.713L726.344+1093.32L741.071+1154.2L808.384+1013.43L794.906+981.798L815.454+1004.63L843.118+959.756L803.724+1058.68L864.276+993.347L884.279+1002.97L889.528+1018.26L861.508+1006.24L799.383+1089L742.455+1250.66L732.552+1402.76L750.105+1532.36L764.974+1717.01L683.732+1719.96L711.798+1618.04L705.396+1507.08L696.074+1341.43L695.014+1229.36L676.804+1092.3L475.524+1016.64L454.335+927.565L492.835+1005.06L653.037+1057.75L454.335+867.269L386.663+868.229L459.816+837.121L507.728+885.545L476.893+799.114L553.686+780.251Z" opacity="1" fill="#695d4c"/>
</g>
<g id="Layer 3" vectornatorLayerName="Layer 3">
<path d="M682.281+1460.5C679.961+1460.4+677.636+1460.43+675.312+1460.56C664.16+1461.17+653.103+1464.33+643.75+1469.69C637.61+1475.08+632.304+1481.28+627.906+1488.03C626.649+1496.63+625.967+1507+625.406+1521.81C625.055+1531.06+624.849+1535.15+624.5+1540.38C624.244+1544.21+622.33+1547.44+619.625+1549.75C620.728+1558.29+622.054+1566.87+623.781+1575.5C625.277+1582.98+620.415+1590.25+612.938+1591.75C612.864+1591.76+612.792+1591.76+612.719+1591.78C612.05+1593.55+611.262+1595.29+610.344+1597.12C609.077+1599.66+607.071+1601.52+604.781+1602.81C607.747+1607.6+607.623+1613.9+603.938+1618.59C597.572+1626.7+594.862+1631.49+593.25+1637.94C591.572+1644.65+585.246+1648.93+578.562+1648.28C576.982+1651.75+575.138+1655.8+574.281+1657.72C572.295+1662.18+570.901+1665.57+569.688+1668.75C570.914+1677.89+572.659+1688.15+574.469+1698.56C574.47+1698.58+574.5+1698.58+574.5+1698.59C574.5+1698.71+574.529+1698.85+574.531+1698.97C574.826+1700.66+575.008+1702.1+575.312+1703.81C575.446+1703.9+575.625+1703.95+575.625+1704.12C575.625+1704.69+575.777+1705.23+575.875+1705.78C576.791+1708.46+578.183+1711.01+579.812+1713.41C580.283+1713.76+580.706+1714.11+581.406+1714.5C581.536+1714.57+582.389+1715.02+582.562+1715.12C583.011+1715.38+583.386+1715.61+583.75+1715.84C584.045+1716.03+584.323+1716.23+584.594+1716.44C585.546+1717.14+586.439+1717.95+587.344+1718.72C622.076+1736.32+664.439+1743.65+702.438+1734.84C709.368+1731.95+715.588+1727.26+719.656+1720.88C725.476+1712.24+727.003+1701.63+726.656+1691.44C726.204+1674.68+721.363+1658.56+717.969+1642.34C717.996+1637.28+717.183+1632.29+715.5+1627.84C715.28+1626.04+715.037+1624.25+714.906+1622.44C714.949+1622.26+715.05+1622.11+715.094+1621.94C714.493+1620.92+713.997+1619.84+713.656+1618.69C713.651+1618.68+713.66+1618.67+713.656+1618.66C712.01+1616.79+710.813+1614.49+710.375+1611.84C710.125+1610.34+709.888+1609.09+709.312+1606.19C707.141+1595.15+706.5+1589.88+707.312+1582.56C707.628+1579.72+708.932+1577.28+710.656+1575.25C710.748+1574.94+710.77+1574.63+710.875+1574.31C711.493+1572.46+712.553+1570.93+713.781+1569.56C714.725+1567+715.762+1564.45+716.969+1561.81C719.547+1552.38+723.649+1544.5+729.656+1538C729.31+1528.9+730.033+1519.44+731.844+1511.5C731.021+1508.49+730.393+1505.88+729.281+1502.19C728.907+1500.95+728.884+1500.79+727.875+1497.47C725.123+1488.4+723.751+1483.73+722.344+1478.09C722.292+1477.89+722.292+1477.68+722.25+1477.47C714.509+1469.4+704.523+1464.31+693.781+1461.97C692.488+1462.07+691.203+1462.18+690.031+1462.16C688.122+1462.11+686.36+1461.92+684.688+1461.47C683.948+1461.27+683.346+1460.82+682.656+1460.53C682.53+1460.53+682.407+1460.51+682.281+1460.5Z" opacity="1" fill="#693415"/>
<path d="M653.094+1468.5C651.993+1468.38+650.877+1468.41+649.75+1468.53C642.23+1469.38+634.442+1475.32+630.906+1481.5C623.194+1489.48+625.183+1500.93+621.5+1510.53C620.321+1519.81+621.64+1529.23+620.594+1538.53C621.056+1545.81+620.579+1552.71+618.281+1559.62C619.129+1581.19+609.87+1600.45+597.625+1617.69C593.429+1631.87+583.267+1642.13+575.156+1653.84C568.661+1668.19+570.507+1683.51+573.781+1698.31C573.868+1698.24+573.879+1698.09+574+1698.09C574.276+1698.09+574.5+1698.32+574.5+1698.59C574.5+1700.25+574.822+1702+575.281+1703.78C575.437+1703.87+575.625+1703.94+575.625+1704.12C575.625+1704.69+575.777+1705.23+575.875+1705.78C576.791+1708.46+578.183+1711.01+579.812+1713.41C580.283+1713.76+580.706+1714.11+581.406+1714.5C581.536+1714.57+582.389+1715.02+582.562+1715.12C583.011+1715.38+583.386+1715.61+583.75+1715.84C584.045+1716.03+584.323+1716.23+584.594+1716.44C586.257+1717.66+587.794+1718.96+589.531+1720.59C598.438+1720.38+607.606+1712.78+602.469+1702.03C599.451+1690.71+594.952+1676.81+600.094+1664.66C600.128+1664.51+600.098+1664.5+600.094+1664.44C617.069+1647.17+626.2+1621.31+639.438+1600.28C647.351+1572.77+649.855+1544.09+649.531+1515.41C650.338+1513.15+651.04+1510.84+651.594+1508.5C652.53+1505.92+652.177+1502.38+652.375+1500.09C661.159+1495.08+670.288+1483.23+662.031+1473.56C659.516+1470.4+656.396+1468.86+653.094+1468.5Z" opacity="1" fill="#693415"/>
<path d="M583.688+1717.41C583.798+1717.51+583.887+1717.58+584+1717.69C583.895+1717.58+583.792+1717.5+583.688+1717.41Z" opacity="1" fill="#693415"/>
<path d="M735.744+1203.45C735.744+1201.51+735.744+1199.57+735.744+1197.62C735.744+1195.99+735.744+1200.9+735.744+1202.53C735.744+1209.17+735.744+1215.81+735.744+1222.44" opacity="1" fill="#693415"/>
<path d="M678.406+1457.88C678.206+1458.61+678.05+1459.36+677.844+1460.09C677.46+1462.73+677.25+1465.39+677.375+1468.06C676.762+1470.68+676.288+1473.34+676.438+1476.03C676.922+1491.96+702.673+1492.17+703.406+1476.25C703.743+1475.43+704.017+1474.58+704.344+1473.75C704.61+1473.65+704.898+1473.64+705.156+1473.5C706.518+1469.97+707.64+1466.4+708.688+1462.81C706.566+1462.98+704.549+1462.66+702.219+1461.31C701.788+1461.2+701.365+1461.1+700.938+1460.94C700.595+1461.01+700.284+1461.12+699.938+1461.19C696.517+1461.86+693.019+1462.22+690.031+1462.16C688.122+1462.11+686.36+1461.92+684.688+1461.47C682.296+1460.83+680.168+1459.73+678.406+1457.88Z" opacity="1" fill="#693415"/>
<path d="M708.109+1478.44C709.012+1494.37+685.191+1500.93+677.827+1486.77C675.093+1482.45+675.343+1477.09+675.694+1472.22C687.758+1428.78+695.022+1384.03+706.716+1340.46C707.885+1337.76+709.762+1335.37+712.109+1333.6C727.747+1321.2+747.661+1342.91+737.113+1358.7C736.191+1362.76+735.378+1366.85+734.13+1370.82C726.824+1406.96+716.259+1442.73+708.109+1478.44" opacity="1" fill="#693415"/>
<path d="M740.433+1361.32C722.366+1387.46+681.735+1355.48+702.191+1331.54C701.397+1332.4+701.061+1333.77+700.031+1334.36C700.354+1329.32+703.548+1324.56+707.06+1321C725.933+1300.59+761.518+1327+747.297+1350.99C745.507+1354.74+743.292+1358.3+740.433+1361.32" opacity="1" fill="#693415"/>
<path d="M713.156+1360.69C713.156+1357.89+713.061+1355.09+713.156+1352.3C713.17+1351.88+713.4+1353.1+713.4+1353.52C713.4+1354.25+712.859+1355.58+712.668+1356.2C712.039+1358.25+711.35+1360.27+710.714+1362.31C708.821+1368.37+707.8+1374.48+705.342+1380.38C702.658+1386.82+702.861+1394.59+701.679+1401.38C699.463+1414.12+692.887+1425.76+690.69+1438.5C690.037+1442.29+688.957+1445.79+688.004+1449.49C686.261+1456.24+685.082+1463.19+683.608+1470C682.341+1475.86+680.258+1481.55+678.725+1487.34C676.907+1494.2+675.822+1501.27+673.841+1508.09C670.765+1518.69+666.925+1529.03+664.561+1539.84C661.947+1551.79+659.426+1564.32+657.968+1576.47C656.558+1588.21+656.278+1599.86+652.351+1611.14C649.119+1620.44+646.714+1630.01+643.316+1639.23C642.524+1641.38+641.159+1643.05+640.142+1645.09C638.249+1648.87+636.29+1653.5+635.014+1657.54C633.688+1661.74+631.767+1666.19+631.106+1670.48C630.813+1672.39+631.346+1674.43+631.106+1676.35C630.995+1677.23+629.771+1681.69+630.862+1681.96C631.543+1682.13+631.982+1679.33+632.083+1679.03" opacity="1" fill="#aca491"/>
<path d="M720.238+1358.65C715.492+1368.14+714.088+1378.98+711.447+1389.17C708.773+1399.48+705.095+1409.59+702.412+1419.94C699.808+1429.98+697.924+1440.15+695.574+1450.22C691.563+1467.41+688.441+1484.95+683.853+1501.99C680.672+1513.8+675.821+1525.21+673.108+1537.15C670.302+1549.5+669.018+1562.09+666.759+1574.52C662.433+1598.31+660.117+1623.03+653.328+1646.31C651.48+1652.64+649.373+1659.58+648.444+1666.09C648.224+1667.63+648.335+1669.21+647.956+1670.73C647.558+1672.32+647.813+1674.38+647.223+1675.86C646.731+1677.09+646.37+1676.71+646.002+1678.54C645.914+1678.99+645.975+1680.66+645.758+1680.98C645.615+1681.2+645.371+1681.93+645.514+1681.72C646.152+1680.76+645.875+1679.44+646.002+1678.3" opacity="1" fill="#aca491"/>
<path d="M725.61+1360.11C726.316+1362.23+724.699+1365.76+724.389+1367.93C724.153+1369.58+724.297+1371.38+724.145+1373.05C722.379+1392.48+713.058+1410.54+706.563+1428.73C703.852+1436.32+702.959+1444.5+702.167+1452.42C701.496+1459.13+702.989+1466.33+701.191+1472.93C699.432+1479.38+696.377+1485.45+694.841+1491.98C691.247+1507.25+687.655+1522.43+683.853+1537.64C682.367+1543.59+679.882+1549.38+678.969+1555.47C677.843+1562.98+677.17+1570.63+676.283+1578.18C675.392+1585.74+674.002+1593.29+673.108+1600.89C672.959+1602.15+672.237+1603.04+672.131+1604.31C671.675+1609.78+671.176+1615.53+669.934+1620.91C669.516+1622.72+668.61+1624.69+668.468+1626.53C668.292+1628.82+668.3+1631.11+667.736+1633.37C666.278+1639.2+664.3+1644.91+662.852+1650.7C662.274+1653.01+661.465+1655.28+660.898+1657.54C660.373+1659.64+660.646+1661.97+660.166+1664.14C659.501+1667.13+657.968+1670.31+657.968+1673.41C657.968+1676.37+657.457+1679.36+656.747+1682.21C656.555+1682.97+656.199+1683.66+656.014+1684.4C655.926+1684.76+655.783+1685.64+655.526+1685.38C655.152+1685.01+655.669+1683.1+655.77+1682.69" opacity="1" fill="#aca491"/>
</g>
</svg>
