<?xml version="1.0" encoding="UTF-8" standalone="no"?> <!-- Created with Vectornator for iOS (http://vectornator.io/) --><!DOCTYPE svg PUBLIC "-//W3C//DTD SVG 1.1//EN" "http://www.w3.org/Graphics/SVG/1.1/DTD/svg11.dtd">
<svg height="100%" style="fill-rule:evenodd;clip-rule:evenodd;stroke-linecap:round;stroke-linejoin:round;" xmlnsXlink="http://www.w3.org/1999/xlink" xmlns="http://www.w3.org/2000/svg" xmlSpace="preserve" width="100%" xmlnsVectornator="http://vectornator.io" version="1.1" viewBox="0 0 3370.82 2384.24">
<metadata>
<vectornatorSetting key="DisplayWhiteBackground" value="0"/>
<vectornatorSetting key="RulersVisible" value="1"/>
<vectornatorSetting key="Units" value="Millimeters"/>
<vectornatorSetting key="New" value="1"/>
<vectornatorSetting key="DynamicGuides" value="0"/>
<vectornatorSetting key="GuidesVisible" value="1"/>
<vectornatorSetting key="SnapToPoints" value="0"/>
<vectornatorSetting key="SnapToGrid" value="0"/>
<vectornatorSetting key="SnapToGuides" value="1"/>
<vectornatorSetting key="DimensionsVisible" value="1"/>
<vectornatorSetting key="SnapToEdges" value="0"/>
</metadata>
<defs/>
<g id="Ground" vectornatorLayerName="Ground">
<path d="M0.625+1348.31L0.625+2390.09L3393.59+2390.09L3393.59+1348.31C3393.59+1348.31+3299.25+1350.94+3015.12+1366.53C2903.46+1372.66+2754.59+1354.02+2643.49+1355.01C2606.04+1355.34+2572.87+1357.91+2546.88+1364.41C2426.36+1394.53+2136.87+1406.52+1962.62+1409.5C1854.58+1411.35+1662.57+1380.48+1563.81+1376.91C1279.33+1366.62+1074.33+1383.42+1044.25+1397.66C938.009+1447.93+378.01+1402.33+338.594+1392.59C205.739+1359.77+0.625+1348.31+0.625+1348.31Z" fill-opacity="0.949153" fill="#c0945e" opacity="1"/>
</g>
<g id="Cactus" vectornatorLayerName="Cactus">
<path d="M1995.65+1445.81C1995.65+1445.81+1998.12+1398.5+1993.67+1393.91C1982.29+1382.18+1969.44+1377.02+1958.33+1375.92C1944.58+1374.56+1919.36+1397.19+1919.36+1397.19L1918.04+1416.59L1917.71+1453.37L1917.71+1493.68L1917.05+1528.19C1917.05+1528.19+1912.08+1540.58+1893.86+1530.8C1883.07+1525.01+1885.67+1513.12+1884.55+1494.89C1884.22+1489.56+1883.47+1461.75+1881.44+1452.67C1878.63+1440.05+1876.27+1427.81+1876.27+1427.81C1876.27+1427.81+1852.08+1408.55+1839.36+1433.13C1834.51+1442.5+1834.65+1453.82+1834.89+1462.42C1835.46+1482.96+1834.37+1497.65+1834.37+1497.65C1834.37+1497.65+1837.57+1527.86+1838.24+1534.96C1838.96+1542.52+1840.34+1555.82+1843.86+1559.93C1851.5+1568.85+1860.36+1572.76+1860.36+1572.76L1860.99+1572.99L1884.9+1581.3C1884.9+1581.3+1905.93+1587.89+1914.47+1600.6C1919.05+1607.42+1917.62+1639.14+1919.68+1670.96C1921.47+1698.47+1923.41+1733.01+1923.41+1733.01L1927.13+1769.47C1927.13+1769.47+1924.74+1791.57+1940.11+1798.9C1955.48+1806.24+1982.28+1800.75+1982.28+1800.75C1982.28+1800.75+2006.89+1799.72+2007.95+1777.82C2008.34+1769.86+2007.06+1749.12+2006.22+1735.03C2004.51+1706.18+2006.55+1704.04+2005.89+1682.63C2005.33+1664.29+2014.17+1667.13+2028.4+1667.13C2039.1+1667.13+2085.1+1658.48+2097.22+1632.64C2109.32+1606.84+2105.36+1573.72+2106.5+1550.78C2108.21+1516.27+2062.84+1510.92+2057.59+1537.98C2053.14+1560.91+2055.87+1565.72+2055.13+1575.81C2053.76+1594.24+2053.47+1606.47+2053.47+1606.47L2045.32+1619.07L2026.91+1624.91L2013.16+1621.66L2002.59+1619.14L1999.62+1611.08L1997.96+1576.31L1996.97+1536L1995.98+1491.66L1995.65+1445.81Z" opacity="1" fill="#1b661d"/>
<path d="M2737.86+1056.68C2737.86+1056.68+2733.82+987.949+2738.98+981.228C2752.18+964.026+2767.26+956.37+2780.39+954.629C2796.63+952.475+2827.02+985.041+2827.02+985.041L2829.05+1013.22L2830.31+1066.67L2831.26+1125.25L2832.86+1175.41C2832.86+1175.41+2839.03+1193.35+2860.36+1178.91C2873+1170.35+2869.65+1153.11+2870.54+1126.6C2870.8+1118.84+2871.03+1078.42+2873.22+1065.19C2876.25+1046.81+2878.75+1029+2878.75+1029C2878.75+1029+2906.94+1000.7+2922.58+1036.26C2928.54+1049.82+2928.64+1066.27+2928.56+1078.77C2928.37+1108.63+2930.01+1129.97+2930.01+1129.97C2930.01+1129.97+2926.93+1173.91+2926.3+1184.24C2925.64+1195.24+2924.31+1214.58+2920.24+1220.6C2911.41+1233.66+2901.02+1239.46+2901.02+1239.46L2900.27+1239.79L2872.17+1252.18C2872.17+1252.18+2847.42+1262.02+2837.62+1280.61C2832.35+1290.58+2834.8+1336.67+2833.11+1382.94C2831.64+1422.93+2830.16+1473.16+2830.16+1473.16L2826.62+1526.2C2826.62+1526.2+2829.96+1558.28+2811.94+1569.14C2793.92+1579.99+2762.07+1572.35+2762.07+1572.35C2762.07+1572.35+2732.91+1571.17+2731.14+1539.36C2730.49+1527.8+2731.52+1497.64+2732.18+1477.15C2733.52+1435.2+2731.05+1432.12+2731.33+1400.99C2731.57+1374.32+2721.17+1378.56+2704.32+1378.74C2691.65+1378.88+2636.99+1366.91+2622.03+1329.51C2607.1+1292.16+2611+1243.97+2609.12+1210.65C2606.28+1160.51+2659.86+1152.17+2666.71+1191.43C2672.52+1224.69+2669.4+1231.71+2670.52+1246.37C2672.58+1273.14+2673.2+1290.91+2673.2+1290.91L2683.16+1309.12L2705.09+1317.37L2721.29+1312.47L2733.74+1308.68L2737.07+1296.92L2738.2+1246.37L2738.42+1187.78L2738.55+1123.32L2737.86+1056.68Z" opacity="1" fill="#1b661d"/>
<path d="M384.351+857.652C391.681+846.02+407.971+861.196+397.574+870.016C396.774+872.076+396.149+874.226+395.233+876.25C393.78+880.012+391.927+883.621+390.705+887.469C390.273+888.817+390.064+890.22+389.747+891.596C389.541+892.568+389.336+893.541+389.131+894.514C384.463+895.463+394.495+913.541+390.411+908.809C380.017+895.327+376.646+872.993+384.351+857.652" opacity="1" fill="#1b661d"/>
<path d="M1932.76+1407.87C1938.12+1405.27+1932.02+1426.45+1935.08+1428.67C1935.3+1437.86+1935.24+1451.92+1935.07+1461.1C1934.89+1470.58+1934.6+1478.89+1934.38+1487.18C1934.15+1495.85+1934.01+1504.5+1934.16+1514.43C1941.44+1603.25+1939.12+1693.02+1951.95+1781.36C1952.56+1782.3+1951.06+1783.31+1950.61+1782.24C1937.65+1693.31+1940+1602.92+1932.75+1513.5C1932.56+1478.28+1935.11+1443.05+1932.76+1407.87" opacity="1" fill="#010101"/>
<path d="M2811.41+1000.74C2805.01+997.024+2812.72+1027.73+2809.15+1030.99C2809.11+1044.36+2809.52+1064.79+2809.94+1078.13C2810.37+1091.9+2810.91+1103.98+2811.37+1116.02C2811.84+1128.63+2812.22+1141.2+2812.28+1155.63C2805.75+1284.8+2810.61+1415.24+2797.52+1543.8C2796.82+1545.17+2798.62+1546.62+2799.12+1545.06C2812.36+1415.64+2807.45+1284.31+2813.91+1154.26C2813.31+1103.07+2809.46+1051.9+2811.41+1000.74" opacity="1" fill="#010101"/>
<path d="M1952.34+1395.39C1958.02+1392.63+1951.56+1415.08+1954.8+1417.42C1955.03+1427.17+1954.97+1442.06+1954.79+1451.79C1954.4+1472.34+1953.51+1487.72+1953.82+1508.29C1961.54+1602.38+1959.08+1697.49+1972.67+1791.08C1973.32+1792.08+1971.73+1793.14+1971.26+1792.01C1957.53+1697.79+1960.01+1602.04+1952.34+1507.3C1952.13+1469.99+1954.83+1432.66+1952.34+1395.39" opacity="1" fill="#010101"/>
<path d="M2787.93+982.847C2781.15+978.916+2789.32+1011.45+2785.54+1014.9C2785.5+1029.06+2785.93+1050.7+2786.37+1064.84C2787.31+1094.71+2788.73+1117.05+2788.85+1146.95C2781.93+1283.79+2787.09+1421.99+2773.21+1558.18C2772.48+1559.64+2774.38+1561.17+2774.91+1559.52C2788.94+1422.41+2783.74+1283.28+2790.58+1145.5C2789.95+1091.27+2785.87+1037.05+2787.93+982.847" opacity="1" fill="#010101"/>
<path d="M1971.14+1405.81C1976.53+1403.2+1970.4+1424.49+1973.47+1426.72C1973.69+1435.97+1973.63+1450.1+1973.46+1459.33C1973.09+1478.83+1972.25+1493.43+1972.54+1512.95C1979.87+1602.24+1977.53+1692.49+1990.43+1781.3C1991.04+1782.25+1989.53+1783.26+1989.09+1782.19C1976.06+1692.78+1978.42+1601.91+1971.13+1512.01C1970.93+1476.61+1973.5+1441.19+1971.14+1405.81" opacity="1" fill="#010101"/>
<path d="M2765.93+998.237C2759.49+994.506+2767.25+1025.38+2763.66+1028.66C2763.62+1042.09+2764.03+1062.63+2764.45+1076.05C2765.34+1104.39+2766.69+1125.59+2766.8+1153.96C2760.24+1283.82+2765.13+1414.96+2751.96+1544.2C2751.26+1545.59+2753.07+1547.04+2753.57+1545.47C2766.88+1415.36+2761.95+1283.33+2768.45+1152.58C2767.84+1101.12+2763.97+1049.68+2765.93+998.237" opacity="1" fill="#010101"/>
<path d="M1842.49+1459C1842.44+1458.18+1843.78+1458.09+1843.85+1458.91C1843.66+1464.41+1844.68+1469.85+1844.64+1475.34C1850.6+1503.01+1840.09+1537.37+1865.37+1557.57C1880.23+1564.64+1887.54+1569.78+1904.22+1571.58C1906.1+1572.35+1906.06+1571.67+1906.98+1572.06C1909.59+1573.14+1909.65+1573.32+1911.27+1573.98C1912.49+1574.48+1915.24+1575.94+1914.69+1576.56C1914.31+1576.99+1913.35+1578.62+1912.21+1577.11C1910.57+1576.3+1906.39+1575.47+1904.92+1574.43C1884.14+1569.98+1867.47+1565.36+1854.21+1547.29C1851.5+1542.73+1850.08+1537.52+1847.77+1532.77C1846.13+1508.16+1844.19+1483.6+1842.49+1459" opacity="1" fill="#000000"/>
<path d="M2919.48+1073.9C2919.51+1072.7+2917.93+1072.59+2917.87+1073.79C2918.22+1081.77+2917.14+1089.7+2917.32+1097.68C2910.92+1137.96+2924.17+1187.77+2894.73+1217.45C2877.3+1227.91+2868.77+1235.47+2849.07+1238.3C2846.86+1239.45+2846.89+1238.46+2845.81+1239.03C2842.74+1240.64+2842.68+1240.9+2840.77+1241.88C2839.34+1242.62+2836.12+1244.78+2836.79+1245.67C2837.25+1246.29+2838.42+1248.65+2839.73+1246.44C2841.66+1245.24+2846.58+1243.98+2848.3+1242.46C2872.8+1235.72+2892.42+1228.79+2907.69+1202.37C2910.79+1195.71+2912.35+1188.11+2914.98+1181.17C2916.34+1145.39+2918.05+1109.67+2919.48+1073.9" opacity="1" fill="#000000"/>
<path d="M1866.1+1471.4C1866.07+1470.87+1866.95+1470.81+1867+1471.34C1866.87+1474.86+1867.54+1478.34+1867.51+1481.86C1871.43+1499.57+1864.52+1521.58+1881.15+1534.51C1890.92+1539.03+1900.81+1543.96+1911.78+1545.12C1913.01+1545.61+1912.09+1545.33+1913.31+1545.88C1917.4+1548.38+1917.68+1552.32+1914.46+1548.16C1913.37+1547.64+1912.62+1546.7+1911.65+1546.04C1897.99+1543.19+1882.53+1539.5+1873.81+1527.93C1872.02+1525.01+1871.09+1521.67+1869.57+1518.63C1868.49+1502.87+1867.22+1487.15+1866.1+1471.4" opacity="1" fill="#000000"/>
<path d="M2891.82+1092.22C2891.85+1091.45+2890.8+1091.38+2890.76+1092.14C2890.99+1097.26+2890.28+1102.33+2890.4+1107.44C2886.18+1133.23+2894.88+1165.12+2875.5+1184.14C2864.04+1190.83+2852.45+1198.12+2839.49+1199.94C2838.04+1200.67+2839.13+1200.26+2837.7+1201.07C2832.91+1204.76+2832.68+1210.48+2836.39+1204.4C2837.66+1203.63+2838.53+1202.26+2839.66+1201.28C2855.77+1196.97+2873.98+1191.4+2884.03+1174.47C2886.08+1170.21+2887.1+1165.34+2888.83+1160.9C2889.73+1137.99+2890.87+1115.12+2891.82+1092.22" opacity="1" fill="#000000"/>
<path d="M1852.51+1462.95C1852.48+1462.27+1853.58+1462.2+1853.63+1462.87C1853.48+1467.38+1854.31+1471.85+1854.28+1476.35C1859.17+1499.05+1850.55+1527.24+1871.29+1543.82C1883.48+1549.61+1895.82+1555.93+1909.5+1557.41C1911.05+1558.04+1910.27+1557.5+1911.79+1558.2C1914.32+1558.97+1916.87+1566.64+1912.85+1561.31C1911.5+1560.65+1910.56+1559.44+1909.35+1558.6C1892.3+1554.94+1873.01+1550.21+1862.13+1535.38C1859.91+1531.64+1858.75+1527.36+1856.84+1523.47C1855.5+1503.28+1853.91+1483.13+1852.51+1462.95" opacity="1" fill="#000000"/>
<path d="M2907.71+1079.76C2907.73+1078.78+2906.43+1078.68+2906.38+1079.67C2906.67+1086.22+2905.79+1092.72+2905.93+1099.27C2900.68+1132.32+2911.55+1173.18+2887.39+1197.54C2873.1+1206.12+2858.64+1215.45+2842.47+1217.77C2840.66+1218.71+2841.57+1217.91+2839.78+1218.95C2836.81+1220.1+2833.97+1231.28+2838.61+1223.49C2840.19+1222.51+2841.27+1220.75+2842.68+1219.5C2862.78+1213.97+2885.5+1206.84+2898.03+1185.16C2900.58+1179.7+2901.85+1173.46+2904.01+1167.77C2905.12+1138.41+2906.53+1109.11+2907.71+1079.76" opacity="1" fill="#000000"/>
<path d="M2065.88+1547.09C2065.67+1546.07+2067.36+1546.02+2067.26+1547.05C2068.02+1550.71+2068.46+1554.42+2069.02+1558.11C2066.66+1581.12+2075.59+1611.25+2054.81+1627.71C2039.41+1637.06+2013.24+1635.48+1996.17+1638.69C1993.72+1635.82+2010.32+1636.99+2011.01+1636.63C2021.75+1634.12+2032.51+1634.14+2043.29+1631.6C2049.6+1629.55+2055.48+1626.2+2059.91+1621.21C2071.96+1599.12+2067.46+1571.31+2065.88+1547.09" opacity="1" fill="#000000"/>
<path d="M2657.12+1204.77C2657.34+1203.29+2655.34+1203.23+2655.47+1204.73C2654.66+1210.05+2654.23+1215.46+2653.65+1220.82C2656.99+1254.23+2647.13+1298.14+2672.12+1321.8C2690.58+1335.19+2721.52+1332.56+2741.79+1337.01C2744.63+1332.81+2725.01+1334.72+2724.19+1334.2C2711.41+1330.7+2698.68+1330.86+2685.85+1327.31C2678.33+1324.41+2671.29+1319.62+2665.93+1312.41C2651.15+1280.47+2655.82+1239.99+2657.12+1204.77" opacity="1" fill="#000000"/>
<path d="M2075.87+1541.22C2075.62+1540.02+2077.65+1539.96+2077.53+1541.18C2078.44+1545.51+2078.96+1549.92+2079.64+1554.28C2076.81+1581.56+2087.49+1617.28+2062.66+1636.8C2044.26+1647.88+2016.56+1644.55+1996.17+1648.35C1993.24+1644.95+2009.51+1647.8+2010.33+1647.37C2023.16+1644.4+2036.01+1644.42+2048.89+1641.41C2056.43+1638.98+2063.46+1635.01+2068.75+1629.09C2083.14+1602.91+2077.77+1569.94+2075.87+1541.22" opacity="1" fill="#000000"/>
<path d="M2645.14+1196.37C2645.41+1194.62+2643.02+1194.55+2643.18+1196.33C2642.21+1202.64+2641.69+1209.04+2641+1215.4C2644.98+1255.01+2633.2+1307.06+2663.04+1335.11C2685.09+1350.98+2717.8+1345.79+2742.02+1351.05C2745.41+1346.07+2726.23+1350.41+2725.24+1349.8C2709.98+1345.65+2694.77+1345.85+2679.45+1341.63C2670.47+1338.2+2662.06+1332.52+2655.66+1323.97C2638+1286.11+2643.58+1238.12+2645.14+1196.37" opacity="1" fill="#000000"/>
<path d="M2088.91+1540.13C2088.61+1538.8+2091.05+1538.74+2090.92+1540.08C2092.01+1544.85+2092.64+1549.7+2093.45+1554.51C2090.05+1584.54+2102.94+1623.87+2072.95+1645.36C2050.72+1657.57+2024.02+1655.33+1999.39+1659.52C1995.86+1655.77+2008.75+1657.47+2009.75+1657C2025.25+1653.73+2040.77+1653.76+2056.33+1650.44C2065.43+1647.76+2073.92+1643.39+2080.3+1636.87C2097.69+1608.05+2091.2+1571.74+2088.91+1540.13" opacity="1" fill="#000000"/>
<path d="M2629.68+1194.95C2630.01+1193.01+2627.12+1192.95+2627.31+1194.9C2626.13+1201.85+2625.5+1208.9+2624.65+1215.9C2629.39+1259.51+2615.06+1316.83+2651.06+1347.68C2677.66+1365.14+2709.23+1361.55+2738.47+1367.32C2742.57+1361.83+2727.35+1364.46+2726.16+1363.79C2707.73+1359.24+2689.36+1359.47+2670.87+1354.85C2660.02+1351.08+2649.88+1344.83+2642.16+1335.44C2620.9+1293.77+2627.73+1240.92+2629.68+1194.95" opacity="1" fill="#000000"/>
</g>
<g id="Person" vectornatorLayerName="Person">
<path d="M759.477+1549.15C764.766+1541.42+795.829+1541.8+802.135+1547.02C808.441+1552.25+809.168+1574.06+809.168+1574.06C809.168+1574.06+814.565+1593.83+816.971+1596.07C817.827+1596.87+822.486+1610.94+827.288+1623.54C835.978+1646.33+845.19+1647.67+838.355+1654.28C831.52+1660.88+784.237+1662.94+773.518+1654.3C762.799+1645.65+754.188+1556.87+759.477+1549.15Z" opacity="1" fill="#176319"/>
<path d="M752.547+1482.69L755.081+1475.44C755.081+1475.44+758.956+1470.78+763.035+1468.64C767.114+1466.5+770.853+1464.14+770.853+1464.14C770.853+1464.14+775.586+1463.3+779.805+1462.97C785.13+1462.54+790.569+1461.47+790.569+1461.47L800.88+1462.97L809.741+1465.9L816.517+1468.32L821.526+1473.32L826.324+1480.12L829.465+1492.07L831.023+1507.84C831.023+1507.84+829.581+1515.8+828.741+1520.95C827.902+1526.11+825.593+1531.26+825.593+1531.26L818.305+1540.12C818.305+1540.12+814.337+1541.58+809.356+1542.88C807.62+1543.33+804.318+1543.83+801.726+1543.44C795.986+1542.56+784.242+1542.56+784.242+1542.56L764.639+1536.95L753.945+1529.15L749.777+1521.29L748.714+1509.97L749.261+1499.57L752.547+1482.69Z" opacity="1" fill="#f7c484"/>
<path d="M774.097+1659.62C775.293+1645.27+817.412+1660.72+850.209+1643.06C860.41+1637.56+866.717+1624.17+871.611+1615.51C876.801+1606.31+890.865+1585.32+900.21+1587.09C909.555+1588.86+922.521+1628.31+922.521+1628.31L929.515+1649.26C929.515+1649.26+934.898+1653.8+937.471+1662.63C940.043+1671.45+939.224+1667.52+941.404+1675.77C943.583+1684.01+942.383+1685.52+942.383+1685.52L941.338+1689.84C941.338+1689.84+930.551+1688.28+929.217+1688.21C924.239+1687.97+918.301+1683.7+918.301+1683.7L912.079+1672.67L902.078+1641.86L885.767+1656.29L876.393+1669.15L860.356+1682.35L893.822+1688.06L915.687+1695.43L933.25+1699.31L951.63+1702.17L974.438+1703.8C974.438+1703.8+970.801+1705.67+981.037+1704.83C991.273+1703.99+986.551+1728.72+986.551+1728.72C986.551+1728.72+983.269+1727.45+973.685+1728.92C959.616+1731.08+952.986+1728.07+952.986+1728.07L922.898+1727.15L889.853+1722.52L848.12+1723.63C848.12+1723.63+826.277+1723.72+808.041+1715.11C785.654+1704.54+773.015+1672.59+774.097+1659.62Z" opacity="1" fill="#1d496d"/>
<path d="M908.253+1666.43C909.436+1664.27+914.08+1668.2+914.08+1668.2L917.965+1669.29L924.666+1669.29L930.044+1667.57L936.674+1665.12L940.203+1662.33L942.925+1662.39L945.936+1665.54L948.752+1668.99C948.752+1668.99+951.569+1671.75+953.317+1672.64C955.065+1673.53+957.687+1673.43+957.687+1673.43L962.252+1676.29C962.252+1676.29+964.553+1677.54+967.205+1680.03C969.129+1681.84+969.633+1683.78+969.633+1683.78C969.633+1683.78+972.168+1688.52+968.371+1690.29C964.573+1692.05+912.901+1688.98+912.901+1688.98C912.901+1688.98+906.796+1669.09+908.253+1666.43Z" opacity="1" fill="#8dc0fa"/>
<path d="M972.309+1734.41C970.148+1733.23+974.084+1728.59+974.084+1728.59L975.168+1724.7L975.168+1718L973.453+1712.62L970.995+1705.99L968.208+1702.46L968.268+1699.74L971.422+1696.73L974.872+1693.91C974.872+1693.91+977.633+1691.1+978.52+1689.35C979.407+1687.6+979.308+1684.98+979.308+1684.98L982.167+1680.41C982.167+1680.41+983.422+1678.11+985.913+1675.46C987.72+1673.54+989.659+1673.03+989.659+1673.03C989.659+1673.03+994.404+1670.5+996.165+1674.3C997.927+1678.09+994.862+1729.77+994.862+1729.77C994.862+1729.77+974.971+1735.87+972.309+1734.41Z" opacity="1" fill="#8dc0fa"/>
<path d="M750.615+1450.84L755.334+1442.55L760.906+1435.73L768.305+1431.85C768.305+1431.85+771.347+1430.7+775.084+1429.83C778.821+1428.96+782.689+1429.04+782.689+1429.04C782.689+1429.04+788.674+1428.11+791.705+1429.2C791.705+1429.2+796.769+1430.07+798.819+1430.62C800.87+1431.18+808.118+1434.01+808.118+1434.01L815.656+1438.13C815.656+1438.13+821.079+1442.77+821.696+1444.36C822.582+1446.63+824.438+1450.06+824.438+1450.06L825.487+1455.87L825.945+1461.55L827.745+1468.13L852.606+1475.43C852.606+1475.43+858.945+1483.9+855.907+1483.93C852.869+1483.96+849.152+1481.42+846.321+1480.51C843.491+1479.59+835.81+1479.47+835.81+1479.47L826.554+1478.34L822.679+1478.82L749.672+1480.05L748.514+1464.76L749.246+1457.06L750.615+1450.84Z" opacity="1" fill="#6d1d1d"/>
</g>
<g id="Hair" vectornatorLayerName="Hair">
<path d="M761.676+1483.63C764.426+1480.02+768.15+1486.08+764.355+1488.18C761.279+1493.61+757.645+1499.51+752.36+1503.05C747.314+1503.97+749.308+1496.15+753.255+1495.9C756.644+1492.21+759.457+1488.1+761.676+1483.63" opacity="1" fill="#764b2f"/>
<path d="M771.938+1482.73C775.368+1480.32+777.2+1486.25+773.753+1487.64C769.853+1492.96+766.28+1500.11+760.204+1503.26C755.595+1503.54+757.661+1496.65+761.176+1496.28C765.601+1492.44+768.198+1487.09+771.938+1482.73" opacity="1" fill="#764b2f"/>
<path d="M780.65+1483.59C784.92+1480.32+786.346+1489.12+781.271+1489.71C777.578+1493.35+773.972+1498.07+768.961+1499.9C759.596+1495.44+780.759+1488.21+780.65+1483.59" opacity="1" fill="#764b2f"/>
<path d="M791.153+1484.18C794.033+1480.77+797.523+1486.96+793.537+1488.78C792.885+1489.71+792.192+1490.62+791.421+1491.47C790.531+1492.45+789.615+1493.42+788.699+1494.38C786.065+1496.76+783.77+1500.01+780.456+1501.53C770.39+1498.03+791.228+1488.94+791.153+1484.18" opacity="1" fill="#764b2f"/>
<path d="M789.259+1491.16C792.682+1487.86+793.356+1497.64+789.57+1498.13C786.836+1502.05+784.684+1507.99+781.102+1510.29C773.959+1506+788.225+1495.63+789.259+1491.16" opacity="1" fill="#764b2f"/>
<path d="M801.249+1478.17C805.253+1474.66+804.793+1487.83+800.74+1487.37C796.942+1491.75+794.006+1500.02+789.655+1502.5C782.449+1494.53+799.525+1484.85+801.249+1478.17" opacity="1" fill="#764b2f"/>
<path d="M774.987+1493.83C778.561+1492.39+777.272+1500.4+774.624+1500.86C771.381+1505.29+769.008+1513.84+764.53+1515.76C761.466+1515.22+763.414+1508.49+765.667+1508.16C769.289+1504.19+771.206+1497.4+774.987+1493.83" opacity="1" fill="#764b2f"/>
<path d="M777.543+1493.5C779.758+1490.74+780.762+1498.74+778.201+1499.46C777.617+1500.32+777.035+1501.19+776.473+1502.11C773.608+1506.24+771.237+1514.15+767.631+1515.64C762.547+1507.61+776.551+1500.25+777.543+1493.5" opacity="1" fill="#764b2f"/>
<path d="M777.084+1490.67C781.504+1488.15+782.036+1496.41+777.153+1496.46C776.275+1497.19+775.408+1497.93+774.546+1498.68C771.655+1500.71+769.403+1504.24+765.885+1505.3C756.588+1501.73+776.092+1492.75+777.084+1490.67" opacity="1" fill="#764b2f"/>
<path d="M770.42+1486.5C774.859+1483.7+775.476+1491.89+771.08+1492.69C767.568+1496.41+765.894+1502.65+761.223+1505.24C751.324+1502.66+770.413+1489.6+770.42+1486.5" opacity="1" fill="#764b2f"/>
<path d="M764.143+1480.27C767.193+1477.52+769.968+1483.45+766.125+1484.77C765.32+1485.62+764.485+1486.44+763.747+1487.34C759.73+1491.31+758.062+1498.4+752.918+1501.11C748.809+1501.52+749.853+1495.57+752.839+1494.54C756.495+1489.7+759.656+1484.42+764.143+1480.27" opacity="1" fill="#764b2f"/>
<path d="M755.078+1479.5C758.829+1475.62+761.348+1483.83+756.963+1485.51C754.056+1489.9+753.141+1496.15+749.104+1499.69C738.824+1498.62+755.668+1483.68+755.078+1479.5" opacity="1" fill="#764b2f"/>
<path d="M760.591+1482.7C760.755+1480.28+764.581+1480.03+765.05+1482.41C763.952+1492.41+758.919+1503.41+751.099+1509.85C745.763+1510.42+748.924+1502.57+752.136+1501.94C755.951+1496.12+759.788+1489.75+760.591+1482.7" opacity="1" fill="#764b2f"/>
<path d="M758.83+1487.85C762.6+1484.57+764.653+1492.01+760.521+1493.49C759.296+1495.21+759.22+1497.87+757.404+1499.14C750.317+1500.66+755.816+1488.84+758.83+1487.85" opacity="1" fill="#764b2f"/>
<path d="M763.873+1492.21C767.24+1488.49+770.327+1495.96+765.824+1497.59C765.173+1498.62+764.525+1499.65+763.878+1500.69C761.925+1502.73+761.379+1506.26+758.879+1507.81C749.706+1507.62+762.766+1493.91+763.873+1492.21" opacity="1" fill="#764b2f"/>
<path d="M768.475+1478.45C773.538+1476.78+771.997+1484.74+767.88+1484.92C764.404+1487.41+763.696+1493.21+759.627+1494.84C750.929+1492.04+766.436+1480.8+768.475+1478.45" opacity="1" fill="#764b2f"/>
<path d="M772.816+1478.97C777.879+1477.3+776.337+1485.26+772.22+1485.44C768.744+1487.93+768.037+1493.73+763.967+1495.36C755.269+1492.56+770.776+1481.32+772.816+1478.97" opacity="1" fill="#764b2f"/>
<path d="M766.517+1498.77C771.046+1496.91+769.667+1505.75+765.984+1505.95C762.875+1508.72+762.242+1515.16+758.601+1516.97C750.821+1513.86+764.692+1501.37+766.517+1498.77" opacity="1" fill="#764b2f"/>
<path d="M761.711+1479.12C764.171+1475.08+768.544+1481.16+764.743+1483.62C764.256+1484.8+763.771+1485.98+763.294+1487.16C761.846+1489.37+762.315+1492.56+760.475+1494.51C751.755+1496.68+760.353+1481.23+761.711+1479.12" opacity="1" fill="#764b2f"/>
<path d="M776.197+1478.81C779.502+1474.55+783.119+1482.74+778.342+1484.58C777.906+1485.43+777.468+1486.27+777.028+1487.12C773.816+1490.91+773.884+1497.19+770.103+1500.4C759.577+1499.36+776.147+1483.19+776.197+1478.81" opacity="1" fill="#764b2f"/>
<path d="M782.586+1480.43C785.542+1477.36+788.65+1483.29+784.862+1484.95C784.336+1485.73+783.826+1486.51+783.317+1487.3C780.78+1490.17+779.543+1494.68+776.212+1496.82C766.653+1495.78+782.198+1482.89+782.586+1480.43" opacity="1" fill="#764b2f"/>
<path d="M787.74+1477.88C790.449+1474.83+793.812+1480.26+790.31+1482.09C789.843+1482.86+789.395+1483.64+788.948+1484.41C785.664+1488.42+784.499+1494.83+780.101+1497.86C769.929+1495.95+787.873+1481.8+787.74+1477.88" opacity="1" fill="#764b2f"/>
<path d="M792.604+1478.14C796.156+1475.19+798.227+1481.78+794.527+1483.37C792.417+1486.73+791.725+1491.59+788.393+1494.02C779.432+1493.65+791.806+1481+792.604+1478.14" opacity="1" fill="#764b2f"/>
<path d="M796.343+1478.94C798.852+1474.53+803.465+1481.24+799.352+1483.78C798.887+1484.83+798.393+1485.86+797.905+1486.9C796.238+1489.94+794.996+1493.62+792.301+1495.96C782.472+1496.16+796.753+1482.25+796.343+1478.94" opacity="1" fill="#764b2f"/>
<path d="M780.378+1495.19C782.861+1491.57+786.952+1497.24+783.255+1499.45C782.637+1500.6+782.019+1501.75+781.439+1502.92C780.267+1504.77+780.028+1507.4+778.227+1508.8C769.94+1510.16+778.725+1496.66+780.378+1495.19" opacity="1" fill="#764b2f"/>
<path d="M756.921+1500.34C760.36+1496.24+762.219+1505.3+758.512+1507.05C757.23+1510.49+755.98+1514.44+753.275+1516.6C745.054+1516.78+757.31+1502.37+756.921+1500.34" opacity="1" fill="#764b2f"/>
<path d="M783.839+1479.35C785.608+1475.58+790.489+1480.08+787.402+1482.8C787.106+1483.61+786.79+1484.42+786.452+1485.21C785.804+1486.73+785.037+1488.19+784.205+1489.61C782.685+1491.49+781.902+1494.12+779.962+1495.64C770.256+1495.89+784.345+1482.33+783.839+1479.35" opacity="1" fill="#764b2f"/>
<path d="M780.422+1479.55C782.725+1475.93+786.992+1481.25+783.473+1483.57C783.059+1484.37+782.637+1485.17+782.209+1485.96C781.445+1487.47+780.431+1488.83+779.435+1490.19C778.117+1491.44+777.487+1493.42+775.932+1494.42C766.599+1494.51+779.541+1482.15+780.422+1479.55" opacity="1" fill="#764b2f"/>
<path d="M757.866+1478.87C761.504+1474.82+764.517+1483.38+759.379+1484.69C758.519+1485.81+757.644+1486.91+756.765+1488.02C754.097+1490.55+752.11+1494.35+748.758+1496.1C738.691+1493.58+758.282+1482.31+757.866+1478.87" opacity="1" fill="#764b2f"/>
<path d="M753.346+1478.59C757.383+1475.7+758.806+1483.34+754.27+1484.14C753.388+1484.92+752.473+1485.66+751.591+1486.45C750.12+1487.19+749.617+1489.22+747.952+1489.64C740.235+1488.44+750.657+1479.74+753.346+1478.59" opacity="1" fill="#764b2f"/>
</g>
<g id="Tree" vectornatorLayerName="Tree">
<path d="M553.686+780.251L502.298+814.51L530.428+887.044L591.16+970.349L570.856+844.913L611.597+981.394L664.685+1041.99L682.5+858.611L590.001+796.945L520.74+714.05L557.112+640.038L545.314+715.922L604.389+788.037L690.037+834.63L687.981+703.075L612.654+651.181L687.28+674.453L700.315+600.983L648.926+596.872L703.328+574.996L713.333+696.908L728.407+622.909L770.203+614.687L746.452+638.033L714.703+818.87L820.221+727.056L862.017+660.594L831.184+622.224L875.253+657.431L831.467+742.051L784.638+772.797L766.686+803.569L865.721+722.554L929.85+687.752L893.61+728.412L930.013+759L882.762+736.917L854.473+753.477L808.869+785.49L777.055+823.667L716.614+873.575L705.111+994.713L726.344+1093.32L741.071+1154.2L808.384+1013.43L794.906+981.798L815.454+1004.63L843.118+959.756L803.724+1058.68L864.276+993.347L884.279+1002.97L889.528+1018.26L861.508+1006.24L799.383+1089L742.455+1250.66L732.552+1402.76L750.105+1532.36L764.974+1717.01L683.732+1719.96L711.798+1618.04L705.396+1507.08L696.074+1341.43L695.014+1229.36L676.804+1092.3L475.524+1016.64L454.335+927.565L492.835+1005.06L653.037+1057.75L454.335+867.269L386.663+868.229L459.816+837.121L507.728+885.545L476.893+799.114L553.686+780.251Z" opacity="1" fill="#695d4c"/>
<path d="M3785.08+207.08C3791.92+235.857+3801.97+264.058+3805.61+293.412C3807.1+305.472+3802.36+317.506+3800.26+329.475C3792.12+375.836+3782.97+422.016+3774.88+468.385C3764.72+526.645+3753.72+584.791+3745.5+643.357C3739.03+689.466+3735.71+735.963+3730.81+782.266" opacity="1" fill="#c49966"/>
<path d="M3750.84+145.153C3750.84+132.08+3749.29+118.914+3750.84+105.933C3751.95+96.6393+3750.74+124.733+3752.18+133.982C3753.87+144.866+3757.84+155.279+3760.19+166.038C3764.85+187.336+3767.3+210.02+3770.88+231.486" opacity="1" fill="#7c3124"/>
<path d="M919.606+749.382C924.844+735.08+944.884+749.687+934.154+759.695C933.153+762.54+932.319+765.444+931.627+768.38C930.483+770.219+930.216+783.368+927.751+773.857C924.885+765.925+915.467+758.463+919.606+749.382" opacity="1" fill="#1b661d"/>
<path d="M936.554+697.713C929.707+707.681+914.34+694.807+922.96+686.325C927.426+681.246+935.097+689.007+938.757+692.228C938.903+692.697+939.049+693.166+939.195+693.635C934.903+695.636+927.616+726.842+926.003+706.952C924.987+701.788+924.019+696.612+922.82+691.486C927.68+691.51+932.414+695.403+936.554+697.713" opacity="1" fill="#1b661d"/>
<path d="M883.466+1008.69C888.552+996.091+907.529+1009.05+898.095+1017.95C897.259+1019.11+896.597+1020.37+895.97+1021.65C894.703+1024.36+894.045+1027.3+892.859+1030.04C891.543+1034.09+889.429+1040.13+888.803+1031.59C886.584+1024.12+878.677+1016.71+883.466+1008.69" opacity="1" fill="#1b661d"/>
<path d="M870.657+998.305C876.38+997.711+863.437+1009.99+870.657+998.305" opacity="1" fill="#ffd95e"/>
<path d="M871.787+999.668C873.247+994.003+880.288+1010.99+871.787+999.668" opacity="1" fill="#ffd95e"/>
<path d="M871.579+999.582C876.572+996.055+870.444+1015.2+871.579+999.582" opacity="1" fill="#ffd95e"/>
<path d="M858.876+999.732C863.413+996.449+858.244+1012.4+858.876+999.732" opacity="1" fill="#ffd95e"/>
<path d="M858.954+999.107C864.504+1000.39+848.653+1007.9+858.954+999.107" opacity="1" fill="#ffd95e"/>
<path d="M860.102+1000.33C858.732+994.734+870.752+1007.42+860.102+1000.33" opacity="1" fill="#ffd95e"/>
<path d="M858.674+990.239C859.954+987.639+861.906+992.84+860.21+993.66C865.551+1008.6+855.121+1000.36+858.674+990.239" opacity="1" fill="#ffd95e"/>
<path d="M873.207+1000.13C870.226+1004.44+870.219+990.811+870.973+989.274C875.353+988.541+870.744+998.202+873.207+1000.13" opacity="1" fill="#ffd95e"/>
<path d="M855.078+965.929L872.895+953.704C872.895+953.704+882.061+946.619+883.501+944.581C884.94+942.543+886.8+939.758+886.8+939.758L890.354+934.872L891.75+930.113L894.352+927.258L897.478+926.306L901.857+927.194L904.185+931.948L904.114+937.471C904.114+937.471+903.745+939.415+902.414+941.012C901.084+942.608+900.624+946.427+900.624+946.427C900.624+946.427+899.742+946.028+899.564+950.507C899.386+954.985+899.352+956.169+899.352+956.169L900.003+962.163L898.309+971.284L896.114+977.954L891.367+983.306L887.436+987.613L880+989.9L853.78+993.534L840.814+999.267C840.814+999.267+840.238+1000.71+839.288+1002.46C838.339+1004.21+837.692+1006.52+837.692+1006.52C837.692+1006.52+837.03+1011.54+832.976+1011.82C828.921+1012.09+824.939+1006.98+824.939+1006.98L822.446+1000.18C822.446+1000.18+820.932+995.794+822.935+992.833C824.939+989.871+836.663+988.332+836.663+988.332L844.059+980.913L855.078+965.929Z" opacity="1" fill="#ffffff"/>
<path d="M890.643+930.938C893.886+928.984+890.103+936.86+889.685+937.792C877.799+956.254+853.689+961.838+843.866+982.288C841.866+984.388+839.842+986.422+837.681+988.341C833.02+991.354+825.522+989.95+822.549+995.346C822.06+999.28+824.596+1003.34+826.491+1006.74C827.316+1008.22+829.583+1010.44+831.799+1010.95C833.512+1011.34+834.493+1011.58+835.769+1010.67C837.044+1009.76+836.734+1005.44+837.347+1005.99C838.897+1007.38+837.621+1004.04+837.963+1006.09C838.1+1008.69+837.681+1011.77+835.035+1013.13C833.923+1013.71+831.551+1013.42+830.548+1013.06C828.798+1012.45+827.204+1010.57+826.292+1009.51C822.781+1005.39+820.426+998.989+821.447+994.053C824.994+989.132+831.589+989.749+836.579+987.396C838.811+985.463+840.869+983.371+842.91+981.223C853.029+958.76+882.955+954.532+890.643+930.938" opacity="1" fill="#010101"/>
<path d="M838.115+1006.92C834.196+1008.77+840.104+998.391+841.897+998.347C846.41+995.939+851.112+993.892+856.076+992.686C866.061+991.158+876.44+991.12+885.967+987.642C895.708+981.075+901.295+969.158+899.092+957.485C899.56+954.008+899.059+950.494+899.377+946.998C900.959+941.063+904.561+935.202+902.63+928.862C901.85+926.686+899.462+925.79+897.321+926.278C895.581+926.753+893.949+927.657+892.76+929.031C892.737+932.825+887.961+935.264+890.335+929.895C892.556+925.661+899.416+922.481+902.992+926.785C907.096+933.408+902.436+940.89+900.779+947.516C900.542+950.902+900.956+954.298+900.519+957.665C904.016+975.165+889.456+993.424+871.257+992.107C868.034+992.856+864.733+993.127+861.43+993.265C855.919+993.858+850.731+995.518+845.727+997.851C841.604+999.182+839.203+1002.94+838.115+1006.92" opacity="1" fill="#010101"/>
<path d="M901.08+932.879L906.525+939.141L910.283+944.403L896.59+942.131L901.08+932.879Z" opacity="1" fill="#ffd95e"/>
<path d="M877.88+962.719C878.136+962.035+879.261+962.294+879.191+963.021C878.07+965.613+877.284+968.521+875.418+970.699C868.275+980.211+855.741+980.62+845.115+982.583C841.697+978.494+857.484+980.518+858.892+979.011C862.193+977.905+865.433+976.548+868.562+975.019C873.245+972.37+876.236+967.725+877.88+962.719" opacity="1" fill="#010101"/>
</g>
<g id="Guitar" vectornatorLayerName="Guitar">
<path d="M682.281+1460.5C679.961+1460.4+677.636+1460.43+675.312+1460.56C664.16+1461.17+653.103+1464.33+643.75+1469.69C637.61+1475.08+632.304+1481.28+627.906+1488.03C626.649+1496.63+625.967+1507+625.406+1521.81C625.055+1531.06+624.849+1535.15+624.5+1540.38C624.244+1544.21+622.33+1547.44+619.625+1549.75C620.728+1558.29+622.054+1566.87+623.781+1575.5C625.277+1582.98+620.415+1590.25+612.938+1591.75C612.864+1591.76+612.792+1591.76+612.719+1591.78C612.05+1593.55+611.262+1595.29+610.344+1597.12C609.077+1599.66+607.071+1601.52+604.781+1602.81C607.747+1607.6+607.623+1613.9+603.938+1618.59C597.572+1626.7+594.862+1631.49+593.25+1637.94C591.572+1644.65+585.246+1648.93+578.562+1648.28C576.982+1651.75+575.138+1655.8+574.281+1657.72C572.295+1662.18+570.901+1665.57+569.688+1668.75C570.914+1677.89+572.659+1688.15+574.469+1698.56C574.47+1698.58+574.5+1698.58+574.5+1698.59C574.5+1698.71+574.529+1698.85+574.531+1698.97C574.826+1700.66+575.008+1702.1+575.312+1703.81C575.446+1703.9+575.625+1703.95+575.625+1704.12C575.625+1704.69+575.777+1705.23+575.875+1705.78C576.791+1708.46+578.183+1711.01+579.812+1713.41C580.283+1713.76+580.706+1714.11+581.406+1714.5C581.536+1714.57+582.389+1715.02+582.562+1715.12C583.011+1715.38+583.386+1715.61+583.75+1715.84C584.045+1716.03+584.323+1716.23+584.594+1716.44C585.546+1717.14+586.439+1717.95+587.344+1718.72C622.076+1736.32+664.439+1743.65+702.438+1734.84C709.368+1731.95+715.588+1727.26+719.656+1720.88C725.476+1712.24+727.003+1701.63+726.656+1691.44C726.204+1674.68+721.363+1658.56+717.969+1642.34C717.996+1637.28+717.183+1632.29+715.5+1627.84C715.28+1626.04+715.037+1624.25+714.906+1622.44C714.949+1622.26+715.05+1622.11+715.094+1621.94C714.493+1620.92+713.997+1619.84+713.656+1618.69C713.651+1618.68+713.66+1618.67+713.656+1618.66C712.01+1616.79+710.813+1614.49+710.375+1611.84C710.125+1610.34+709.888+1609.09+709.312+1606.19C707.141+1595.15+706.5+1589.88+707.312+1582.56C707.628+1579.72+708.932+1577.28+710.656+1575.25C710.748+1574.94+710.77+1574.63+710.875+1574.31C711.493+1572.46+712.553+1570.93+713.781+1569.56C714.725+1567+715.762+1564.45+716.969+1561.81C719.547+1552.38+723.649+1544.5+729.656+1538C729.31+1528.9+730.033+1519.44+731.844+1511.5C731.021+1508.49+730.393+1505.88+729.281+1502.19C728.907+1500.95+728.884+1500.79+727.875+1497.47C725.123+1488.4+723.751+1483.73+722.344+1478.09C722.292+1477.89+722.292+1477.68+722.25+1477.47C714.509+1469.4+704.523+1464.31+693.781+1461.97C692.488+1462.07+691.203+1462.18+690.031+1462.16C688.122+1462.11+686.36+1461.92+684.688+1461.47C683.948+1461.27+683.346+1460.82+682.656+1460.53C682.53+1460.53+682.407+1460.51+682.281+1460.5Z" opacity="1" fill="#693415"/>
<path d="M653.094+1468.5C651.993+1468.38+650.877+1468.41+649.75+1468.53C642.23+1469.38+634.442+1475.32+630.906+1481.5C623.194+1489.48+625.183+1500.93+621.5+1510.53C620.321+1519.81+621.64+1529.23+620.594+1538.53C621.056+1545.81+620.579+1552.71+618.281+1559.62C619.129+1581.19+609.87+1600.45+597.625+1617.69C593.429+1631.87+583.267+1642.13+575.156+1653.84C568.661+1668.19+570.507+1683.51+573.781+1698.31C573.868+1698.24+573.879+1698.09+574+1698.09C574.276+1698.09+574.5+1698.32+574.5+1698.59C574.5+1700.25+574.822+1702+575.281+1703.78C575.437+1703.87+575.625+1703.94+575.625+1704.12C575.625+1704.69+575.777+1705.23+575.875+1705.78C576.791+1708.46+578.183+1711.01+579.812+1713.41C580.283+1713.76+580.706+1714.11+581.406+1714.5C581.536+1714.57+582.389+1715.02+582.562+1715.12C583.011+1715.38+583.386+1715.61+583.75+1715.84C584.045+1716.03+584.323+1716.23+584.594+1716.44C586.257+1717.66+587.794+1718.96+589.531+1720.59C598.438+1720.38+607.606+1712.78+602.469+1702.03C599.451+1690.71+594.952+1676.81+600.094+1664.66C600.128+1664.51+600.098+1664.5+600.094+1664.44C617.069+1647.17+626.2+1621.31+639.438+1600.28C647.351+1572.77+649.855+1544.09+649.531+1515.41C650.338+1513.15+651.04+1510.84+651.594+1508.5C652.53+1505.92+652.177+1502.38+652.375+1500.09C661.159+1495.08+670.288+1483.23+662.031+1473.56C659.516+1470.4+656.396+1468.86+653.094+1468.5Z" opacity="1" fill="#693415"/>
<path d="M583.688+1717.41C583.798+1717.51+583.887+1717.58+584+1717.69C583.895+1717.58+583.792+1717.5+583.688+1717.41Z" opacity="1" fill="#693415"/>
<path d="M735.744+1203.45C735.744+1201.51+735.744+1199.57+735.744+1197.62C735.744+1195.99+735.744+1200.9+735.744+1202.53C735.744+1209.17+735.744+1215.81+735.744+1222.44" opacity="1" fill="#693415"/>
<path d="M678.406+1457.88C678.206+1458.61+678.05+1459.36+677.844+1460.09C677.46+1462.73+677.25+1465.39+677.375+1468.06C676.762+1470.68+676.288+1473.34+676.438+1476.03C676.922+1491.96+702.673+1492.17+703.406+1476.25C703.743+1475.43+704.017+1474.58+704.344+1473.75C704.61+1473.65+704.898+1473.64+705.156+1473.5C706.518+1469.97+707.64+1466.4+708.688+1462.81C706.566+1462.98+704.549+1462.66+702.219+1461.31C701.788+1461.2+701.365+1461.1+700.938+1460.94C700.595+1461.01+700.284+1461.12+699.938+1461.19C696.517+1461.86+693.019+1462.22+690.031+1462.16C688.122+1462.11+686.36+1461.92+684.688+1461.47C682.296+1460.83+680.168+1459.73+678.406+1457.88Z" opacity="1" fill="#693415"/>
<path d="M708.109+1478.44C709.012+1494.37+685.191+1500.93+677.827+1486.77C675.093+1482.45+675.343+1477.09+675.694+1472.22C687.758+1428.78+695.022+1384.03+706.716+1340.46C707.885+1337.76+709.762+1335.37+712.109+1333.6C727.747+1321.2+747.661+1342.91+737.113+1358.7C736.191+1362.76+735.378+1366.85+734.13+1370.82C726.824+1406.96+716.259+1442.73+708.109+1478.44" opacity="1" fill="#693415"/>
<path d="M740.433+1361.32C722.366+1387.46+681.735+1355.48+702.191+1331.54C701.397+1332.4+701.061+1333.77+700.031+1334.36C700.354+1329.32+703.548+1324.56+707.06+1321C725.933+1300.59+761.518+1327+747.297+1350.99C745.507+1354.74+743.292+1358.3+740.433+1361.32" opacity="1" fill="#693415"/>
<path d="M713.156+1360.69C713.156+1357.89+713.061+1355.09+713.156+1352.3C713.17+1351.88+713.4+1353.1+713.4+1353.52C713.4+1354.25+712.859+1355.58+712.668+1356.2C712.039+1358.25+711.35+1360.27+710.714+1362.31C708.821+1368.37+707.8+1374.48+705.342+1380.38C702.658+1386.82+702.861+1394.59+701.679+1401.38C699.463+1414.12+692.887+1425.76+690.69+1438.5C690.037+1442.29+688.957+1445.79+688.004+1449.49C686.261+1456.24+685.082+1463.19+683.608+1470C682.341+1475.86+680.258+1481.55+678.725+1487.34C676.907+1494.2+675.822+1501.27+673.841+1508.09C670.765+1518.69+666.925+1529.03+664.561+1539.84C661.947+1551.79+659.426+1564.32+657.968+1576.47C656.558+1588.21+656.278+1599.86+652.351+1611.14C649.119+1620.44+646.714+1630.01+643.316+1639.23C642.524+1641.38+641.159+1643.05+640.142+1645.09C638.249+1648.87+636.29+1653.5+635.014+1657.54C633.688+1661.74+631.767+1666.19+631.106+1670.48C630.813+1672.39+631.346+1674.43+631.106+1676.35C630.995+1677.23+629.771+1681.69+630.862+1681.96C631.543+1682.13+631.982+1679.33+632.083+1679.03" opacity="1" fill="#aca491"/>
<path d="M720.238+1358.65C715.492+1368.14+714.088+1378.98+711.447+1389.17C708.773+1399.48+705.095+1409.59+702.412+1419.94C699.808+1429.98+697.924+1440.15+695.574+1450.22C691.563+1467.41+688.441+1484.95+683.853+1501.99C680.672+1513.8+675.821+1525.21+673.108+1537.15C670.302+1549.5+669.018+1562.09+666.759+1574.52C662.433+1598.31+660.117+1623.03+653.328+1646.31C651.48+1652.64+649.373+1659.58+648.444+1666.09C648.224+1667.63+648.335+1669.21+647.956+1670.73C647.558+1672.32+647.813+1674.38+647.223+1675.86C646.731+1677.09+646.37+1676.71+646.002+1678.54C645.914+1678.99+645.975+1680.66+645.758+1680.98C645.615+1681.2+645.371+1681.93+645.514+1681.72C646.152+1680.76+645.875+1679.44+646.002+1678.3" opacity="1" fill="#aca491"/>
<path d="M725.61+1360.11C726.316+1362.23+724.699+1365.76+724.389+1367.93C724.153+1369.58+724.297+1371.38+724.145+1373.05C722.379+1392.48+713.058+1410.54+706.563+1428.73C703.852+1436.32+702.959+1444.5+702.167+1452.42C701.496+1459.13+702.989+1466.33+701.191+1472.93C699.432+1479.38+696.377+1485.45+694.841+1491.98C691.247+1507.25+687.655+1522.43+683.853+1537.64C682.367+1543.59+679.882+1549.38+678.969+1555.47C677.843+1562.98+677.17+1570.63+676.283+1578.18C675.392+1585.74+674.002+1593.29+673.108+1600.89C672.959+1602.15+672.237+1603.04+672.131+1604.31C671.675+1609.78+671.176+1615.53+669.934+1620.91C669.516+1622.72+668.61+1624.69+668.468+1626.53C668.292+1628.82+668.3+1631.11+667.736+1633.37C666.278+1639.2+664.3+1644.91+662.852+1650.7C662.274+1653.01+661.465+1655.28+660.898+1657.54C660.373+1659.64+660.646+1661.97+660.166+1664.14C659.501+1667.13+657.968+1670.31+657.968+1673.41C657.968+1676.37+657.457+1679.36+656.747+1682.21C656.555+1682.97+656.199+1683.66+656.014+1684.4C655.926+1684.76+655.783+1685.64+655.526+1685.38C655.152+1685.01+655.669+1683.1+655.77+1682.69" opacity="1" fill="#aca491"/>
</g>
</svg>
