<?xml version="1.0" encoding="UTF-8" standalone="no"?> <!-- Created with Vectornator for iOS (http://vectornator.io/) --><!DOCTYPE svg PUBLIC "-//W3C//DTD SVG 1.1//EN" "http://www.w3.org/Graphics/SVG/1.1/DTD/svg11.dtd">
<svg height="100%" style="fill-rule:evenodd;clip-rule:evenodd;stroke-linecap:round;stroke-linejoin:round;" xmlnsXlink="http://www.w3.org/1999/xlink" xmlns="http://www.w3.org/2000/svg" xmlSpace="preserve" width="100%" xmlnsVectornator="http://vectornator.io" version="1.1" viewBox="0 0 3370.82 2384.24">
<metadata>
<vectornatorSetting key="DisplayWhiteBackground" value="0"/>
<vectornatorSetting key="RulersVisible" value="1"/>
<vectornatorSetting key="Units" value="Millimeters"/>
<vectornatorSetting key="New" value="1"/>
<vectornatorSetting key="DynamicGuides" value="0"/>
<vectornatorSetting key="GuidesVisible" value="1"/>
<vectornatorSetting key="SnapToPoints" value="0"/>
<vectornatorSetting key="SnapToGrid" value="0"/>
<vectornatorSetting key="SnapToGuides" value="1"/>
<vectornatorSetting key="DimensionsVisible" value="1"/>
<vectornatorSetting key="SnapToEdges" value="0"/>
</metadata>
<defs/>
<g id="Ground" vectornatorLayerName="Ground">
<path d="M0.625+1348.31L0.625+2390.09L3393.59+2390.09L3393.59+1348.31C3393.59+1348.31+3299.25+1350.94+3015.12+1366.53C2903.46+1372.66+2754.59+1354.02+2643.49+1355.01C2606.04+1355.34+2572.87+1357.91+2546.88+1364.41C2426.36+1394.53+2136.87+1406.52+1962.62+1409.5C1854.58+1411.35+1662.57+1380.48+1563.81+1376.91C1279.33+1366.62+1074.33+1383.42+1044.25+1397.66C938.009+1447.93+378.01+1402.33+338.594+1392.59C205.739+1359.77+0.625+1348.31+0.625+1348.31Z" fill-opacity="0.949153" fill="#c0945e" opacity="1"/>
</g>
<g id="Person" vectornatorLayerName="Person">
<path d="M759.477+1549.15C764.766+1541.42+795.829+1541.8+802.135+1547.02C808.441+1552.25+809.168+1574.06+809.168+1574.06C809.168+1574.06+814.565+1593.83+816.971+1596.07C817.827+1596.87+822.486+1610.94+827.288+1623.54C835.978+1646.33+845.19+1647.67+838.355+1654.28C831.52+1660.88+784.237+1662.94+773.518+1654.3C762.799+1645.65+754.188+1556.87+759.477+1549.15Z" opacity="1" fill="#176319"/>
<path d="M752.547+1482.69L755.081+1475.44C755.081+1475.44+758.956+1470.78+763.035+1468.64C767.114+1466.5+770.853+1464.14+770.853+1464.14C770.853+1464.14+775.586+1463.3+779.805+1462.97C785.13+1462.54+790.569+1461.47+790.569+1461.47L800.88+1462.97L809.741+1465.9L816.517+1468.32L821.526+1473.32L826.324+1480.12L829.465+1492.07L831.023+1507.84C831.023+1507.84+829.581+1515.8+828.741+1520.95C827.902+1526.11+825.593+1531.26+825.593+1531.26L818.305+1540.12C818.305+1540.12+814.337+1541.58+809.356+1542.88C807.62+1543.33+804.318+1543.83+801.726+1543.44C795.986+1542.56+784.242+1542.56+784.242+1542.56L764.639+1536.95L753.945+1529.15L749.777+1521.29L748.714+1509.97L749.261+1499.57L752.547+1482.69Z" opacity="1" fill="#f7c484"/>
<path d="M774.097+1659.62C775.293+1645.27+817.412+1660.72+850.209+1643.06C860.41+1637.56+866.717+1624.17+871.611+1615.51C876.801+1606.31+890.865+1585.32+900.21+1587.09C909.555+1588.86+922.521+1628.31+922.521+1628.31L929.515+1649.26C929.515+1649.26+934.898+1653.8+937.471+1662.63C940.043+1671.45+939.224+1667.52+941.404+1675.77C943.583+1684.01+942.383+1685.52+942.383+1685.52L941.338+1689.84C941.338+1689.84+930.551+1688.28+929.217+1688.21C924.239+1687.97+918.301+1683.7+918.301+1683.7L912.079+1672.67L902.078+1641.86L885.767+1656.29L876.393+1669.15L860.356+1682.35L893.822+1688.06L915.687+1695.43L933.25+1699.31L951.63+1702.17L974.438+1703.8C974.438+1703.8+970.801+1705.67+981.037+1704.83C991.273+1703.99+986.551+1728.72+986.551+1728.72C986.551+1728.72+983.269+1727.45+973.685+1728.92C959.616+1731.08+952.986+1728.07+952.986+1728.07L922.898+1727.15L889.853+1722.52L848.12+1723.63C848.12+1723.63+826.277+1723.72+808.041+1715.11C785.654+1704.54+773.015+1672.59+774.097+1659.62Z" opacity="1" fill="#1d496d"/>
<path d="M759.876+1489.5C757.369+1493.31+751.29+1493.65+748.392+1490.12C740.321+1478.4+764.097+1465.08+770.506+1478.48C770.391+1477.93+766.073+1476.93+765.508+1478.9C770.399+1469.31+785.128+1466.81+789.472+1478.19C788.769+1477.59+785.59+1476.53+788.048+1477.13C786.814+1477.25+785.504+1477.34+784.485+1478.13C789.157+1471.04+800.197+1470.1+805.891+1476.58C803.987+1475.15+801.178+1475.65+799.062+1476.53C801.707+1474.21+805.728+1473.6+809.004+1474.81C806.637+1475.07+802.57+1476.66+801.181+1477.46C807.348+1466.68+822.862+1481.71+811.768+1487.78C809.244+1488.55+806.317+1490.47+803.673+1489.25C805.283+1489.45+807.001+1489.35+808.493+1488.7C806.483+1490.42+803.672+1490.94+801.092+1490.79C798.524+1490.43+791.557+1486.74+797.598+1486.82C791.565+1495.17+778.378+1493.2+774.819+1483.46C776.263+1484.71+778.759+1485.58+780.745+1484.71C775.213+1491.49+764.067+1496.38+758.264+1486.65C758.871+1486.76+760.351+1487.68+761.359+1487.46C760.069+1488.65+760.169+1487.94+761.394+1487C760.993+1487.9+760.439+1488.71+759.876+1489.5" opacity="1" fill="#5e4519"/>
<path d="M749.861+1456.49L754.58+1448.19L760.151+1441.37L767.551+1437.49C767.551+1437.49+770.592+1436.34+774.33+1435.47C778.067+1434.6+781.935+1434.68+781.935+1434.68C781.935+1434.68+787.919+1433.75+790.951+1434.84C790.951+1434.84+796.015+1435.71+798.065+1436.26C800.116+1436.82+807.364+1439.65+807.364+1439.65L814.902+1443.77C814.902+1443.77+820.324+1448.41+820.942+1450C821.828+1452.27+823.684+1455.7+823.684+1455.7L824.733+1461.51L825.191+1467.19L826.991+1473.77L851.851+1481.07C851.851+1481.07+858.191+1489.54+855.153+1489.57C852.115+1489.6+848.398+1487.06+845.567+1486.15C842.736+1485.23+835.055+1485.11+835.055+1485.11L825.8+1483.98L821.925+1484.46L748.917+1485.69L747.76+1470.4L748.491+1462.7L749.861+1456.49Z" opacity="1" fill="#6d1d1d"/>
<path d="M908.253+1666.43C909.436+1664.27+914.08+1668.2+914.08+1668.2L917.965+1669.29L924.666+1669.29L930.044+1667.57L936.674+1665.12L940.203+1662.33L942.925+1662.39L945.936+1665.54L948.752+1668.99C948.752+1668.99+951.569+1671.75+953.317+1672.64C955.065+1673.53+957.687+1673.43+957.687+1673.43L962.252+1676.29C962.252+1676.29+964.553+1677.54+967.205+1680.03C969.129+1681.84+969.633+1683.78+969.633+1683.78C969.633+1683.78+972.168+1688.52+968.371+1690.29C964.573+1692.05+912.901+1688.98+912.901+1688.98C912.901+1688.98+906.796+1669.09+908.253+1666.43Z" opacity="1" fill="#8dc0fa"/>
<path d="M972.309+1734.41C970.148+1733.23+974.084+1728.59+974.084+1728.59L975.168+1724.7L975.168+1718L973.453+1712.62L970.995+1705.99L968.208+1702.46L968.268+1699.74L971.422+1696.73L974.872+1693.91C974.872+1693.91+977.633+1691.1+978.52+1689.35C979.407+1687.6+979.308+1684.98+979.308+1684.98L982.167+1680.41C982.167+1680.41+983.422+1678.11+985.913+1675.46C987.72+1673.54+989.659+1673.03+989.659+1673.03C989.659+1673.03+994.404+1670.5+996.165+1674.3C997.927+1678.09+994.862+1729.77+994.862+1729.77C994.862+1729.77+974.971+1735.87+972.309+1734.41Z" opacity="1" fill="#8dc0fa"/>
</g>
<g id="Cactus" vectornatorLayerName="Cactus">
<path d="M2846.58+1097.85C2846.58+1097.85+2844.1+1030.51+2848.56+1023.99C2859.97+1007.29+2872.85+999.949+2883.99+998.382C2897.76+996.445+2923.04+1028.65+2923.04+1028.65L2924.37+1056.26L2924.7+1108.6L2924.7+1165.97L2925.36+1215.09C2925.36+1215.09+2930.34+1232.72+2948.6+1218.8C2959.42+1210.56+2956.81+1193.64+2957.93+1167.7C2958.26+1160.11+2959.01+1120.54+2961.04+1107.61C2963.87+1089.64+2966.23+1072.23+2966.23+1072.23C2966.23+1072.23+2990.48+1044.82+3003.23+1079.8C3008.09+1093.14+3007.94+1109.25+3007.7+1121.49C3007.13+1150.72+3008.23+1171.63+3008.23+1171.63C3008.23+1171.63+3005.02+1214.61+3004.35+1224.72C3003.63+1235.48+3002.24+1254.41+2998.71+1260.26C2991.06+1272.95+2982.18+1278.52+2982.18+1278.52L2981.55+1278.84L2957.59+1290.67C2957.59+1290.67+2936.5+1300.04+2927.94+1318.14C2923.35+1327.84+2924.79+1372.99+2922.72+1418.28C2920.93+1457.42+2918.99+1506.58+2918.99+1506.58L2915.26+1558.47C2915.26+1558.47+2917.65+1589.91+2902.24+1600.35C2886.84+1610.79+2859.98+1602.98+2859.98+1602.98C2859.98+1602.98+2835.31+1601.51+2834.25+1570.35C2833.86+1559.03+2835.15+1529.51+2835.98+1509.45C2837.69+1468.39+2835.65+1465.35+2836.31+1434.87C2836.88+1408.77+2828.02+1412.81+2813.76+1412.81C2803.03+1412.81+2756.92+1400.51+2744.78+1363.74C2732.65+1327.01+2736.62+1279.88+2735.48+1247.24C2733.76+1198.12+2779.23+1190.52+2784.49+1229.03C2788.95+1261.65+2786.22+1268.49+2786.97+1282.86C2788.34+1309.08+2788.62+1326.49+2788.62+1326.49L2796.8+1344.42L2815.25+1352.73L2829.03+1348.11L2839.62+1344.52L2842.6+1333.05L2844.26+1283.57L2845.25+1226.2L2846.25+1163.1L2846.58+1097.85Z" opacity="1" fill="#1b661d"/>
<path d="M2048.58+1464.13C2048.58+1464.13+2051.05+1416.82+2046.6+1412.23C2035.22+1400.5+2022.37+1395.34+2011.26+1394.24C1997.51+1392.88+1972.29+1415.51+1972.29+1415.51L1970.97+1434.91L1970.64+1471.69L1970.64+1512L1969.98+1546.51C1969.98+1546.51+1965.01+1558.9+1946.79+1549.12C1936+1543.33+1938.6+1531.44+1937.48+1513.21C1937.15+1507.88+1936.4+1480.07+1934.38+1470.99C1931.56+1458.37+1929.2+1446.13+1929.2+1446.13C1929.2+1446.13+1905.01+1426.87+1892.29+1451.45C1887.44+1460.82+1887.58+1472.14+1887.82+1480.74C1888.39+1501.28+1887.3+1515.98+1887.3+1515.98C1887.3+1515.98+1890.5+1546.18+1891.17+1553.28C1891.89+1560.84+1893.28+1574.14+1896.8+1578.25C1904.43+1587.17+1913.29+1591.08+1913.29+1591.08L1913.92+1591.31L1937.83+1599.62C1937.83+1599.62+1958.86+1606.21+1967.4+1618.92C1971.98+1625.74+1970.55+1657.47+1972.61+1689.28C1974.4+1716.79+1976.34+1751.33+1976.34+1751.33L1980.06+1787.79C1980.06+1787.79+1977.67+1809.89+1993.04+1817.22C2008.41+1824.56+2035.21+1819.07+2035.21+1819.07C2035.21+1819.07+2059.82+1818.04+2060.89+1796.14C2061.27+1788.18+2059.99+1767.44+2059.15+1753.35C2057.45+1724.5+2059.48+1722.36+2058.82+1700.95C2058.26+1682.61+2067.1+1685.45+2081.33+1685.45C2092.03+1685.45+2138.04+1676.8+2150.15+1650.96C2162.25+1625.16+2158.29+1592.04+2159.43+1569.1C2161.14+1534.59+2115.77+1529.25+2110.52+1556.31C2106.08+1579.23+2108.81+1584.04+2108.06+1594.13C2106.69+1612.56+2106.4+1624.79+2106.4+1624.79L2098.25+1637.39L2079.84+1643.23L2066.09+1639.98L2055.52+1637.46L2052.55+1629.4L2050.9+1594.63L2049.91+1554.32L2048.91+1509.98L2048.58+1464.13Z" opacity="1" fill="#1b661d"/>
<path d="M384.351+857.652C391.681+846.02+407.971+861.196+397.574+870.016C396.774+872.076+396.149+874.226+395.233+876.25C393.78+880.012+391.927+883.621+390.705+887.469C390.273+888.817+390.064+890.22+389.747+891.596C389.541+892.568+389.336+893.541+389.131+894.514C384.463+895.463+394.495+913.541+390.411+908.809C380.017+895.327+376.646+872.993+384.351+857.652" opacity="1" fill="#1b661d"/>
</g>
<g id="Tree" vectornatorLayerName="Tree">
<path d="M553.686+780.251L502.298+814.51L530.428+887.044L591.16+970.349L570.856+844.913L611.597+981.394L664.685+1041.99L682.5+858.611L590.001+796.945L520.74+714.05L557.112+640.038L545.314+715.922L604.389+788.037L690.037+834.63L687.981+703.075L612.654+651.181L687.28+674.453L700.315+600.983L648.926+596.872L703.328+574.996L713.333+696.908L728.407+622.909L770.203+614.687L746.452+638.033L714.703+818.87L820.221+727.056L862.017+660.594L831.184+622.224L875.253+657.431L831.467+742.051L784.638+772.797L766.686+803.569L865.721+722.554L929.85+687.752L893.61+728.412L930.013+759L882.762+736.917L854.473+753.477L808.869+785.49L777.055+823.667L716.614+873.575L705.111+994.713L726.344+1093.32L741.071+1154.2L808.384+1013.43L794.906+981.798L815.454+1004.63L843.118+959.756L803.724+1058.68L864.276+993.347L884.279+1002.97L889.528+1018.26L861.508+1006.24L799.383+1089L742.455+1250.66L732.552+1402.76L750.105+1532.36L764.974+1717.01L683.732+1719.96L711.798+1618.04L705.396+1507.08L696.074+1341.43L695.014+1229.36L676.804+1092.3L475.524+1016.64L454.335+927.565L492.835+1005.06L653.037+1057.75L454.335+867.269L386.663+868.229L459.816+837.121L507.728+885.545L476.893+799.114L553.686+780.251Z" opacity="1" fill="#695d4c"/>
<path d="M3785.08+207.08C3791.92+235.857+3801.97+264.058+3805.61+293.412C3807.1+305.472+3802.36+317.506+3800.26+329.475C3792.12+375.836+3782.97+422.016+3774.88+468.385C3764.72+526.645+3753.72+584.791+3745.5+643.357C3739.03+689.466+3735.71+735.963+3730.81+782.266" opacity="1" fill="#c49966"/>
<path d="M3750.84+145.153C3750.84+132.08+3749.29+118.914+3750.84+105.933C3751.95+96.6393+3750.74+124.733+3752.18+133.982C3753.87+144.866+3757.84+155.279+3760.19+166.038C3764.85+187.336+3767.3+210.02+3770.88+231.486" opacity="1" fill="#7c3124"/>
<path d="M919.606+749.382C924.844+735.08+944.884+749.687+934.154+759.695C933.153+762.54+932.319+765.444+931.627+768.38C930.483+770.219+930.216+783.368+927.751+773.857C924.885+765.925+915.467+758.463+919.606+749.382" opacity="1" fill="#1b661d"/>
<path d="M936.554+697.713C929.707+707.681+914.34+694.807+922.96+686.325C927.426+681.246+935.097+689.007+938.757+692.228C938.903+692.697+939.049+693.166+939.195+693.635C934.903+695.636+927.616+726.842+926.003+706.952C924.987+701.788+924.019+696.612+922.82+691.486C927.68+691.51+932.414+695.403+936.554+697.713" opacity="1" fill="#1b661d"/>
<path d="M883.466+1008.69C888.552+996.091+907.529+1009.05+898.095+1017.95C897.259+1019.11+896.597+1020.37+895.97+1021.65C894.703+1024.36+894.045+1027.3+892.859+1030.04C891.543+1034.09+889.429+1040.13+888.803+1031.59C886.584+1024.12+878.677+1016.71+883.466+1008.69" opacity="1" fill="#1b661d"/>
</g>
<g id="Guitar" vectornatorLayerName="Guitar">
<path d="M682.281+1460.5C679.961+1460.4+677.636+1460.43+675.312+1460.56C664.16+1461.17+653.103+1464.33+643.75+1469.69C637.61+1475.08+632.304+1481.28+627.906+1488.03C626.649+1496.63+625.967+1507+625.406+1521.81C625.055+1531.06+624.849+1535.15+624.5+1540.38C624.244+1544.21+622.33+1547.44+619.625+1549.75C620.728+1558.29+622.054+1566.87+623.781+1575.5C625.277+1582.98+620.415+1590.25+612.938+1591.75C612.864+1591.76+612.792+1591.76+612.719+1591.78C612.05+1593.55+611.262+1595.29+610.344+1597.12C609.077+1599.66+607.071+1601.52+604.781+1602.81C607.747+1607.6+607.623+1613.9+603.938+1618.59C597.572+1626.7+594.862+1631.49+593.25+1637.94C591.572+1644.65+585.246+1648.93+578.562+1648.28C576.982+1651.75+575.138+1655.8+574.281+1657.72C572.295+1662.18+570.901+1665.57+569.688+1668.75C570.914+1677.89+572.659+1688.15+574.469+1698.56C574.47+1698.58+574.5+1698.58+574.5+1698.59C574.5+1698.71+574.529+1698.85+574.531+1698.97C574.826+1700.66+575.008+1702.1+575.312+1703.81C575.446+1703.9+575.625+1703.95+575.625+1704.12C575.625+1704.69+575.777+1705.23+575.875+1705.78C576.791+1708.46+578.183+1711.01+579.812+1713.41C580.283+1713.76+580.706+1714.11+581.406+1714.5C581.536+1714.57+582.389+1715.02+582.562+1715.12C583.011+1715.38+583.386+1715.61+583.75+1715.84C584.045+1716.03+584.323+1716.23+584.594+1716.44C585.546+1717.14+586.439+1717.95+587.344+1718.72C622.076+1736.32+664.439+1743.65+702.438+1734.84C709.368+1731.95+715.588+1727.26+719.656+1720.88C725.476+1712.24+727.003+1701.63+726.656+1691.44C726.204+1674.68+721.363+1658.56+717.969+1642.34C717.996+1637.28+717.183+1632.29+715.5+1627.84C715.28+1626.04+715.037+1624.25+714.906+1622.44C714.949+1622.26+715.05+1622.11+715.094+1621.94C714.493+1620.92+713.997+1619.84+713.656+1618.69C713.651+1618.68+713.66+1618.67+713.656+1618.66C712.01+1616.79+710.813+1614.49+710.375+1611.84C710.125+1610.34+709.888+1609.09+709.312+1606.19C707.141+1595.15+706.5+1589.88+707.312+1582.56C707.628+1579.72+708.932+1577.28+710.656+1575.25C710.748+1574.94+710.77+1574.63+710.875+1574.31C711.493+1572.46+712.553+1570.93+713.781+1569.56C714.725+1567+715.762+1564.45+716.969+1561.81C719.547+1552.38+723.649+1544.5+729.656+1538C729.31+1528.9+730.033+1519.44+731.844+1511.5C731.021+1508.49+730.393+1505.88+729.281+1502.19C728.907+1500.95+728.884+1500.79+727.875+1497.47C725.123+1488.4+723.751+1483.73+722.344+1478.09C722.292+1477.89+722.292+1477.68+722.25+1477.47C714.509+1469.4+704.523+1464.31+693.781+1461.97C692.488+1462.07+691.203+1462.18+690.031+1462.16C688.122+1462.11+686.36+1461.92+684.688+1461.47C683.948+1461.27+683.346+1460.82+682.656+1460.53C682.53+1460.53+682.407+1460.51+682.281+1460.5Z" opacity="1" fill="#693415"/>
<path d="M653.094+1468.5C651.993+1468.38+650.877+1468.41+649.75+1468.53C642.23+1469.38+634.442+1475.32+630.906+1481.5C623.194+1489.48+625.183+1500.93+621.5+1510.53C620.321+1519.81+621.64+1529.23+620.594+1538.53C621.056+1545.81+620.579+1552.71+618.281+1559.62C619.129+1581.19+609.87+1600.45+597.625+1617.69C593.429+1631.87+583.267+1642.13+575.156+1653.84C568.661+1668.19+570.507+1683.51+573.781+1698.31C573.868+1698.24+573.879+1698.09+574+1698.09C574.276+1698.09+574.5+1698.32+574.5+1698.59C574.5+1700.25+574.822+1702+575.281+1703.78C575.437+1703.87+575.625+1703.94+575.625+1704.12C575.625+1704.69+575.777+1705.23+575.875+1705.78C576.791+1708.46+578.183+1711.01+579.812+1713.41C580.283+1713.76+580.706+1714.11+581.406+1714.5C581.536+1714.57+582.389+1715.02+582.562+1715.12C583.011+1715.38+583.386+1715.61+583.75+1715.84C584.045+1716.03+584.323+1716.23+584.594+1716.44C586.257+1717.66+587.794+1718.96+589.531+1720.59C598.438+1720.38+607.606+1712.78+602.469+1702.03C599.451+1690.71+594.952+1676.81+600.094+1664.66C600.128+1664.51+600.098+1664.5+600.094+1664.44C617.069+1647.17+626.2+1621.31+639.438+1600.28C647.351+1572.77+649.855+1544.09+649.531+1515.41C650.338+1513.15+651.04+1510.84+651.594+1508.5C652.53+1505.92+652.177+1502.38+652.375+1500.09C661.159+1495.08+670.288+1483.23+662.031+1473.56C659.516+1470.4+656.396+1468.86+653.094+1468.5Z" opacity="1" fill="#693415"/>
<path d="M583.688+1717.41C583.798+1717.51+583.887+1717.58+584+1717.69C583.895+1717.58+583.792+1717.5+583.688+1717.41Z" opacity="1" fill="#693415"/>
<path d="M735.744+1203.45C735.744+1201.51+735.744+1199.57+735.744+1197.62C735.744+1195.99+735.744+1200.9+735.744+1202.53C735.744+1209.17+735.744+1215.81+735.744+1222.44" opacity="1" fill="#693415"/>
<path d="M678.406+1457.88C678.206+1458.61+678.05+1459.36+677.844+1460.09C677.46+1462.73+677.25+1465.39+677.375+1468.06C676.762+1470.68+676.288+1473.34+676.438+1476.03C676.922+1491.96+702.673+1492.17+703.406+1476.25C703.743+1475.43+704.017+1474.58+704.344+1473.75C704.61+1473.65+704.898+1473.64+705.156+1473.5C706.518+1469.97+707.64+1466.4+708.688+1462.81C706.566+1462.98+704.549+1462.66+702.219+1461.31C701.788+1461.2+701.365+1461.1+700.938+1460.94C700.595+1461.01+700.284+1461.12+699.938+1461.19C696.517+1461.86+693.019+1462.22+690.031+1462.16C688.122+1462.11+686.36+1461.92+684.688+1461.47C682.296+1460.83+680.168+1459.73+678.406+1457.88Z" opacity="1" fill="#693415"/>
<path d="M708.109+1478.44C709.012+1494.37+685.191+1500.93+677.827+1486.77C675.093+1482.45+675.343+1477.09+675.694+1472.22C687.758+1428.78+695.022+1384.03+706.716+1340.46C707.885+1337.76+709.762+1335.37+712.109+1333.6C727.747+1321.2+747.661+1342.91+737.113+1358.7C736.191+1362.76+735.378+1366.85+734.13+1370.82C726.824+1406.96+716.259+1442.73+708.109+1478.44" opacity="1" fill="#693415"/>
<path d="M740.433+1361.32C722.366+1387.46+681.735+1355.48+702.191+1331.54C701.397+1332.4+701.061+1333.77+700.031+1334.36C700.354+1329.32+703.548+1324.56+707.06+1321C725.933+1300.59+761.518+1327+747.297+1350.99C745.507+1354.74+743.292+1358.3+740.433+1361.32" opacity="1" fill="#693415"/>
<path d="M713.156+1360.69C713.156+1357.89+713.061+1355.09+713.156+1352.3C713.17+1351.88+713.4+1353.1+713.4+1353.52C713.4+1354.25+712.859+1355.58+712.668+1356.2C712.039+1358.25+711.35+1360.27+710.714+1362.31C708.821+1368.37+707.8+1374.48+705.342+1380.38C702.658+1386.82+702.861+1394.59+701.679+1401.38C699.463+1414.12+692.887+1425.76+690.69+1438.5C690.037+1442.29+688.957+1445.79+688.004+1449.49C686.261+1456.24+685.082+1463.19+683.608+1470C682.341+1475.86+680.258+1481.55+678.725+1487.34C676.907+1494.2+675.822+1501.27+673.841+1508.09C670.765+1518.69+666.925+1529.03+664.561+1539.84C661.947+1551.79+659.426+1564.32+657.968+1576.47C656.558+1588.21+656.278+1599.86+652.351+1611.14C649.119+1620.44+646.714+1630.01+643.316+1639.23C642.524+1641.38+641.159+1643.05+640.142+1645.09C638.249+1648.87+636.29+1653.5+635.014+1657.54C633.688+1661.74+631.767+1666.19+631.106+1670.48C630.813+1672.39+631.346+1674.43+631.106+1676.35C630.995+1677.23+629.771+1681.69+630.862+1681.96C631.543+1682.13+631.982+1679.33+632.083+1679.03" opacity="1" fill="#aca491"/>
<path d="M720.238+1358.65C715.492+1368.14+714.088+1378.98+711.447+1389.17C708.773+1399.48+705.095+1409.59+702.412+1419.94C699.808+1429.98+697.924+1440.15+695.574+1450.22C691.563+1467.41+688.441+1484.95+683.853+1501.99C680.672+1513.8+675.821+1525.21+673.108+1537.15C670.302+1549.5+669.018+1562.09+666.759+1574.52C662.433+1598.31+660.117+1623.03+653.328+1646.31C651.48+1652.64+649.373+1659.58+648.444+1666.09C648.224+1667.63+648.335+1669.21+647.956+1670.73C647.558+1672.32+647.813+1674.38+647.223+1675.86C646.731+1677.09+646.37+1676.71+646.002+1678.54C645.914+1678.99+645.975+1680.66+645.758+1680.98C645.615+1681.2+645.371+1681.93+645.514+1681.72C646.152+1680.76+645.875+1679.44+646.002+1678.3" opacity="1" fill="#aca491"/>
<path d="M725.61+1360.11C726.316+1362.23+724.699+1365.76+724.389+1367.93C724.153+1369.58+724.297+1371.38+724.145+1373.05C722.379+1392.48+713.058+1410.54+706.563+1428.73C703.852+1436.32+702.959+1444.5+702.167+1452.42C701.496+1459.13+702.989+1466.33+701.191+1472.93C699.432+1479.38+696.377+1485.45+694.841+1491.98C691.247+1507.25+687.655+1522.43+683.853+1537.64C682.367+1543.59+679.882+1549.38+678.969+1555.47C677.843+1562.98+677.17+1570.63+676.283+1578.18C675.392+1585.74+674.002+1593.29+673.108+1600.89C672.959+1602.15+672.237+1603.04+672.131+1604.31C671.675+1609.78+671.176+1615.53+669.934+1620.91C669.516+1622.72+668.61+1624.69+668.468+1626.53C668.292+1628.82+668.3+1631.11+667.736+1633.37C666.278+1639.2+664.3+1644.91+662.852+1650.7C662.274+1653.01+661.465+1655.28+660.898+1657.54C660.373+1659.64+660.646+1661.97+660.166+1664.14C659.501+1667.13+657.968+1670.31+657.968+1673.41C657.968+1676.37+657.457+1679.36+656.747+1682.21C656.555+1682.97+656.199+1683.66+656.014+1684.4C655.926+1684.76+655.783+1685.64+655.526+1685.38C655.152+1685.01+655.669+1683.1+655.77+1682.69" opacity="1" fill="#aca491"/>
</g>
</svg>
