<?xml version="1.0" encoding="UTF-8" standalone="no"?> <!-- Created with Vectornator for iOS (http://vectornator.io/) --><!DOCTYPE svg PUBLIC "-//W3C//DTD SVG 1.1//EN" "http://www.w3.org/Graphics/SVG/1.1/DTD/svg11.dtd">
<svg height="100%" style="fill-rule:evenodd;clip-rule:evenodd;stroke-linecap:round;stroke-linejoin:round;" xmlnsXlink="http://www.w3.org/1999/xlink" xmlns="http://www.w3.org/2000/svg" xmlSpace="preserve" width="100%" xmlnsVectornator="http://vectornator.io" version="1.1" viewBox="0 0 3370.82 2384.24">
<metadata>
<vectornatorSetting key="DisplayWhiteBackground" value="0"/>
<vectornatorSetting key="RulersVisible" value="1"/>
<vectornatorSetting key="Units" value="Millimeters"/>
<vectornatorSetting key="New" value="1"/>
<vectornatorSetting key="DynamicGuides" value="0"/>
<vectornatorSetting key="GuidesVisible" value="1"/>
<vectornatorSetting key="SnapToPoints" value="0"/>
<vectornatorSetting key="SnapToGrid" value="0"/>
<vectornatorSetting key="SnapToGuides" value="1"/>
<vectornatorSetting key="DimensionsVisible" value="1"/>
<vectornatorSetting key="SnapToEdges" value="0"/>
</metadata>
<defs/>
<g id="Layer 1" vectornatorLayerName="Layer 1">
<path d="M0.625+1348.31L0.625+2390.09L3393.59+2390.09L3393.59+1348.31C3393.59+1348.31+3299.25+1350.94+3015.12+1366.53C2903.46+1372.66+2754.59+1354.02+2643.49+1355.01C2606.04+1355.34+2572.87+1357.91+2546.88+1364.41C2426.36+1394.53+2136.87+1406.52+1962.62+1409.5C1854.58+1411.35+1662.57+1380.48+1563.81+1376.91C1279.33+1366.62+1074.33+1383.42+1044.25+1397.66C938.009+1447.93+378.01+1402.33+338.594+1392.59C205.739+1359.77+0.625+1348.31+0.625+1348.31Z" fill-opacity="0.949153" fill="#c0945e" opacity="1"/>
</g>
<g id="Layer 2" vectornatorLayerName="Layer 2">
<path d="M553.686+780.251L502.298+814.51L530.428+887.044L591.16+970.349L570.856+844.913L611.597+981.394L664.685+1041.99L682.5+858.611L590.001+796.945L520.74+714.05L557.112+640.038L545.314+715.922L604.389+788.037L690.037+834.63L687.981+703.075L612.654+651.181L687.28+674.453L700.315+600.983L648.926+596.872L703.328+574.996L713.333+696.908L728.407+622.909L770.203+614.687L746.452+638.033L714.703+818.87L820.221+727.056L862.017+660.594L831.184+622.224L875.253+657.431L831.467+742.051L784.638+772.797L766.686+803.569L865.721+722.554L929.85+687.752L893.61+728.412L930.013+759L882.762+736.917L854.473+753.477L808.869+785.49L777.055+823.667L716.614+873.575L705.111+994.713L726.344+1093.32L741.071+1154.2L808.384+1013.43L794.906+981.798L815.454+1004.63L843.118+959.756L803.724+1058.68L864.276+993.347L884.279+1002.97L889.528+1018.26L861.508+1006.24L799.383+1089L742.455+1250.66L732.552+1402.76L750.105+1532.36L764.974+1717.01L683.732+1719.96L711.798+1618.04L705.396+1507.08L696.074+1341.43L695.014+1229.36L676.804+1092.3L475.524+1016.64L454.335+927.565L492.835+1005.06L653.037+1057.75L454.335+867.269L386.663+868.229L459.816+837.121L507.728+885.545L476.893+799.114L553.686+780.251Z" opacity="1" fill="#695d4c"/>
</g>
</svg>
